M48
; DRILL file KiCad 10.0.4 date 2026-07-01T17:17:57
; FORMAT={-:-/ absolute / metric / decimal}
; #@! TF.CreationDate,2026-07-01T17:17:57+12:00
; #@! TF.GenerationSoftware,Kicad,Pcbnew,10.0.4
; #@! TF.FileFunction,Plated,1,2,PTH
FMAT,2
METRIC
; #@! TA.AperFunction,Plated,PTH,ViaDrill
T1C0.500
; #@! TA.AperFunction,Plated,PTH,ComponentDrill
T2C0.500
; #@! TA.AperFunction,Plated,PTH,ComponentDrill
T3C1.000
; #@! TA.AperFunction,Plated,PTH,ComponentDrill
T4C1.200
%
G90
G05
T1
X32.0Y-73.0
X36.5Y-53.5
X48.0Y-61.0
X93.0Y-47.0
X102.0Y-31.0
X103.0Y-52.0
X103.5Y-51.0
X104.0Y-50.0
X104.5Y-59.5
T3
X33.9Y-53.625
X33.9Y-56.165
X33.9Y-58.705
X33.9Y-61.245
X33.9Y-63.785
X33.9Y-66.325
X46.24Y-48.825
X46.24Y-51.365
X46.24Y-53.905
X46.24Y-56.445
X46.24Y-58.985
X46.24Y-61.525
X46.24Y-64.065
X46.24Y-66.605
X46.24Y-71.685
X46.24Y-74.225
X46.24Y-76.765
X46.24Y-79.305
X46.24Y-81.845
X46.24Y-84.385
X63.5Y-100.0
X73.5Y-100.0
X94.5Y-39.685
X94.5Y-42.225
X94.5Y-44.765
X94.5Y-47.305
X94.5Y-49.845
X94.5Y-52.385
X94.5Y-54.925
X94.5Y-57.465
X94.5Y-60.005
X94.5Y-62.545
X94.5Y-66.605
X94.5Y-69.145
X94.5Y-71.685
X94.5Y-74.225
X94.5Y-76.765
X94.5Y-79.305
X94.5Y-81.845
X94.5Y-84.385
X102.5Y-84.0
X104.1Y-30.44
X104.1Y-32.98
X104.1Y-35.52
X104.1Y-38.06
X104.1Y-40.6
X112.5Y-84.0
T4
X31.5Y-75.38
X31.5Y-90.62
X102.5Y-60.38
X102.5Y-75.62
T2
G00X31.8Y-98.825
M15
G01X31.8Y-101.175
M16
G05
G00X40.5Y-98.825
M15
G01X40.5Y-101.175
M16
G05
G00X97.8Y-98.825
M15
G01X97.8Y-101.175
M16
G05
G00X106.5Y-98.825
M15
G01X106.5Y-101.175
M16
G05
M30
