%TF.GenerationSoftware,KiCad,Pcbnew,10.0.4*%
%TF.CreationDate,2026-07-01T17:18:18+12:00*%
%TF.ProjectId,scast_goad,73636173-745f-4676-9f61-642e6b696361,rev?*%
%TF.SameCoordinates,Original*%
%TF.FileFunction,Copper,L2,Bot*%
%TF.FilePolarity,Positive*%
%FSLAX46Y46*%
G04 Gerber Fmt 4.6, Leading zero omitted, Abs format (unit mm)*
G04 Created by KiCad (PCBNEW 10.0.4) date 2026-07-01 17:18:18*
%MOMM*%
%LPD*%
G01*
G04 APERTURE LIST*
%TA.AperFunction,ComponentPad*%
%ADD10C,2.000000*%
%TD*%
%TA.AperFunction,ComponentPad*%
%ADD11R,1.000000X3.200000*%
%TD*%
%TA.AperFunction,ComponentPad*%
%ADD12R,1.700000X1.700000*%
%TD*%
%TA.AperFunction,ComponentPad*%
%ADD13C,1.700000*%
%TD*%
%TA.AperFunction,ComponentPad*%
%ADD14C,2.400000*%
%TD*%
%TA.AperFunction,ComponentPad*%
%ADD15R,1.600000X1.600000*%
%TD*%
%TA.AperFunction,ComponentPad*%
%ADD16O,1.600000X1.600000*%
%TD*%
%TA.AperFunction,ViaPad*%
%ADD17C,1.000000*%
%TD*%
%TA.AperFunction,Conductor*%
%ADD18C,0.200000*%
%TD*%
G04 APERTURE END LIST*
D10*
%TO.P,C5,1*%
%TO.N,BWD_SW*%
X63500000Y-100000000D03*
%TO.P,C5,2*%
%TO.N,+3V3*%
X73500000Y-100000000D03*
%TD*%
D11*
%TO.P,SW6,1,1_1*%
%TO.N,BWD_SW*%
X31800000Y-100000000D03*
%TO.P,SW6,2,2_2*%
%TO.N,+3V3*%
X40500000Y-100000000D03*
%TD*%
%TO.P,SW5,1,1_1*%
%TO.N,FWD_SW*%
X97800000Y-100000000D03*
%TO.P,SW5,2,2_2*%
%TO.N,+3V3*%
X106500000Y-100000000D03*
%TD*%
D12*
%TO.P,J1,1,Pin_1_1*%
%TO.N,ENCODER_A*%
X104100000Y-40600000D03*
D13*
%TO.P,J1,2,Pin_2_2*%
%TO.N,ENCODER_B*%
X104100000Y-38060000D03*
%TO.P,J1,3,Pin_3_3*%
%TO.N,unconnected-(J1-Pin_3-Pad3)*%
X104100000Y-35520000D03*
%TO.P,J1,4,Pin_4_4*%
%TO.N,+3V3*%
X104100000Y-32980000D03*
%TO.P,J1,5,Pin_5_5*%
%TO.N,GND*%
X104100000Y-30440000D03*
%TD*%
D14*
%TO.P,R5,1*%
%TO.N,FWD_SW*%
X102500000Y-75620000D03*
%TO.P,R5,2*%
%TO.N,GND*%
X102500000Y-60380000D03*
%TD*%
D12*
%TO.P,J2,1,Pin_1_1*%
%TO.N,GND*%
X33900000Y-53625000D03*
D13*
%TO.P,J2,2,Pin_2_2*%
%TO.N,+3V3*%
X33900000Y-56165000D03*
%TO.P,J2,3,Pin_3_3*%
%TO.N,TILT_SDA*%
X33900000Y-58705000D03*
%TO.P,J2,4,Pin_4_4*%
%TO.N,TILT_SCL*%
X33900000Y-61245000D03*
%TO.P,J2,5,Pin_5_5*%
%TO.N,unconnected-(J2-Pin_5-Pad5)*%
X33900000Y-63785000D03*
%TO.P,J2,6,Pin_6_6*%
%TO.N,unconnected-(J2-Pin_6-Pad6)*%
X33900000Y-66325000D03*
%TD*%
D10*
%TO.P,C4,1*%
%TO.N,FWD_SW*%
X102500000Y-84000000D03*
%TO.P,C4,2*%
%TO.N,+3V3*%
X112500000Y-84000000D03*
%TD*%
D15*
%TO.P,A1,1,NC_1*%
%TO.N,unconnected-(A1-NC-Pad1)*%
X46240000Y-48825000D03*
D16*
%TO.P,A1,2,IOREF_2*%
%TO.N,unconnected-(A1-IOREF-Pad2)*%
X46240000Y-51365000D03*
%TO.P,A1,3,~{RESET}_3*%
%TO.N,unconnected-(A1-~{RESET}-Pad3)*%
X46240000Y-53905000D03*
%TO.P,A1,4,3V3_4*%
%TO.N,+3V3*%
X46240000Y-56445000D03*
%TO.P,A1,5,+5V_5*%
%TO.N,unconnected-(A1-+5V-Pad5)*%
X46240000Y-58985000D03*
%TO.P,A1,6,GND_6*%
%TO.N,GND*%
X46240000Y-61525000D03*
%TO.P,A1,7,GND_7*%
X46240000Y-64065000D03*
%TO.P,A1,8,VIN_8*%
%TO.N,unconnected-(A1-VIN-Pad8)*%
X46240000Y-66605000D03*
%TO.P,A1,9,A0_9*%
%TO.N,unconnected-(A1-A0-Pad9)*%
X46240000Y-71685000D03*
%TO.P,A1,10,A1_10*%
%TO.N,unconnected-(A1-A1-Pad10)*%
X46240000Y-74225000D03*
%TO.P,A1,11,A2_11*%
%TO.N,unconnected-(A1-A2-Pad11)*%
X46240000Y-76765000D03*
%TO.P,A1,12,A3_12*%
%TO.N,unconnected-(A1-A3-Pad12)*%
X46240000Y-79305000D03*
%TO.P,A1,13,SDA/A4_13*%
%TO.N,TILT_SDA*%
X46240000Y-81845000D03*
%TO.P,A1,14,SCL/A5_14*%
%TO.N,TILT_SCL*%
X46240000Y-84385000D03*
%TO.P,A1,15,D0/RX_15*%
%TO.N,unconnected-(A1-D0{slash}RX-Pad15)*%
X94500000Y-84385000D03*
%TO.P,A1,16,D1/TX_16*%
%TO.N,unconnected-(A1-D1{slash}TX-Pad16)*%
X94500000Y-81845000D03*
%TO.P,A1,17,D2_17*%
%TO.N,ENCODER_A*%
X94500000Y-79305000D03*
%TO.P,A1,18,D3_18*%
%TO.N,ENCODER_B*%
X94500000Y-76765000D03*
%TO.P,A1,19,D4_19*%
%TO.N,BWD_SW*%
X94500000Y-74225000D03*
%TO.P,A1,20,D5_20*%
%TO.N,FWD_SW*%
X94500000Y-71685000D03*
%TO.P,A1,21,D6_21*%
%TO.N,unconnected-(A1-D6-Pad21)*%
X94500000Y-69145000D03*
%TO.P,A1,22,D7_22*%
%TO.N,unconnected-(A1-D7-Pad22)*%
X94500000Y-66605000D03*
%TO.P,A1,23,D8_23*%
%TO.N,unconnected-(A1-D8-Pad23)*%
X94500000Y-62545000D03*
%TO.P,A1,24,D9_24*%
%TO.N,unconnected-(A1-D9-Pad24)*%
X94500000Y-60005000D03*
%TO.P,A1,25,D10_25*%
%TO.N,unconnected-(A1-D10-Pad25)*%
X94500000Y-57465000D03*
%TO.P,A1,26,D11_26*%
%TO.N,unconnected-(A1-D11-Pad26)*%
X94500000Y-54925000D03*
%TO.P,A1,27,D12_27*%
%TO.N,unconnected-(A1-D12-Pad27)*%
X94500000Y-52385000D03*
%TO.P,A1,28,D13_28*%
%TO.N,unconnected-(A1-D13-Pad28)*%
X94500000Y-49845000D03*
%TO.P,A1,29,GND_29*%
%TO.N,GND*%
X94500000Y-47305000D03*
%TO.P,A1,30,AREF_30*%
%TO.N,unconnected-(A1-AREF-Pad30)*%
X94500000Y-44765000D03*
%TO.P,A1,31,SDA/A4_31*%
%TO.N,unconnected-(A1-SDA{slash}A4-Pad31)*%
X94500000Y-42225000D03*
%TO.P,A1,32,SCL/A5_32*%
%TO.N,unconnected-(A1-SCL{slash}A5-Pad32)*%
X94500000Y-39685000D03*
%TD*%
D14*
%TO.P,R6,1*%
%TO.N,BWD_SW*%
X31500000Y-90620000D03*
%TO.P,R6,2*%
%TO.N,GND*%
X31500000Y-75380000D03*
%TD*%
D17*
%TO.N,GND*%
X104000000Y-50000000D03*
X36500000Y-53500000D03*
X93000000Y-47000000D03*
X102000000Y-31000000D03*
X48000000Y-61000000D03*
X32000000Y-73000000D03*
X103500000Y-51000000D03*
X103000000Y-52000000D03*
X104500000Y-59500000D03*
%TD*%
%TO.N,FWD_SW*%
D18*
X98435000Y-75620000D02*
X94500000Y-71685000D01*
X102500000Y-75620000D02*
X98435000Y-75620000D01*
%TO.N,+3V3*%
X40500000Y-100000000D02*
X40500000Y-62185000D01*
X40500000Y-62185000D02*
X46240000Y-56445000D01*
%TD*%
%TA.AperFunction,Conductor*%
%TO.N,GND*%
G36*
X46490000Y-63631988D02*
G01*
X46432993Y-63599075D01*
X46305826Y-63565000D01*
X46174174Y-63565000D01*
X46047007Y-63599075D01*
X45990000Y-63631988D01*
X45990000Y-61958012D01*
X46047007Y-61990925D01*
X46174174Y-62025000D01*
X46305826Y-62025000D01*
X46432993Y-61990925D01*
X46490000Y-61958012D01*
X46490000Y-63631988D01*
G37*
%TD.AperFunction*%
%TA.AperFunction,Conductor*%
G36*
X113942539Y-26520185D02*
G01*
X113988294Y-26572989D01*
X113999500Y-26624500D01*
X113999500Y-83129448D01*
X113979815Y-83196487D01*
X113927011Y-83242242D01*
X113857853Y-83252186D01*
X113794297Y-83223161D01*
X113775182Y-83202334D01*
X113755295Y-83174962D01*
X113644517Y-83022490D01*
X113477510Y-82855483D01*
X113286433Y-82716657D01*
X113238459Y-82692213D01*
X113075996Y-82609433D01*
X112851368Y-82536446D01*
X112618097Y-82499500D01*
X112618092Y-82499500D01*
X112381908Y-82499500D01*
X112381903Y-82499500D01*
X112148631Y-82536446D01*
X111924003Y-82609433D01*
X111713566Y-82716657D01*
X111604550Y-82795862D01*
X111522490Y-82855483D01*
X111522488Y-82855485D01*
X111522487Y-82855485D01*
X111355485Y-83022487D01*
X111355485Y-83022488D01*
X111355483Y-83022490D01*
X111335336Y-83050220D01*
X111216657Y-83213566D01*
X111109433Y-83424003D01*
X111036446Y-83648631D01*
X110999500Y-83881902D01*
X110999500Y-84118097D01*
X111036446Y-84351368D01*
X111109433Y-84575996D01*
X111200641Y-84755000D01*
X111216657Y-84786433D01*
X111355483Y-84977510D01*
X111522490Y-85144517D01*
X111713567Y-85283343D01*
X111812991Y-85334002D01*
X111924003Y-85390566D01*
X111924005Y-85390566D01*
X111924008Y-85390568D01*
X112044412Y-85429689D01*
X112148631Y-85463553D01*
X112381903Y-85500500D01*
X112381908Y-85500500D01*
X112618097Y-85500500D01*
X112851368Y-85463553D01*
X113075992Y-85390568D01*
X113286433Y-85283343D01*
X113477510Y-85144517D01*
X113644517Y-84977510D01*
X113775183Y-84797664D01*
X113830512Y-84755000D01*
X113900126Y-84749021D01*
X113961920Y-84781627D01*
X113996278Y-84842466D01*
X113999500Y-84870551D01*
X113999500Y-105375500D01*
X113979815Y-105442539D01*
X113927011Y-105488294D01*
X113875500Y-105499500D01*
X24124500Y-105499500D01*
X24057461Y-105479815D01*
X24011706Y-105427011D01*
X24000500Y-105375500D01*
X24000500Y-98352135D01*
X30799500Y-98352135D01*
X30799500Y-101647870D01*
X30799501Y-101647876D01*
X30805908Y-101707483D01*
X30856202Y-101842328D01*
X30856206Y-101842335D01*
X30942452Y-101957544D01*
X30942455Y-101957547D01*
X31057664Y-102043793D01*
X31057671Y-102043797D01*
X31192517Y-102094091D01*
X31192516Y-102094091D01*
X31199444Y-102094835D01*
X31252127Y-102100500D01*
X32347872Y-102100499D01*
X32407483Y-102094091D01*
X32542331Y-102043796D01*
X32657546Y-101957546D01*
X32743796Y-101842331D01*
X32794091Y-101707483D01*
X32800500Y-101647873D01*
X32800499Y-98352135D01*
X39499500Y-98352135D01*
X39499500Y-101647870D01*
X39499501Y-101647876D01*
X39505908Y-101707483D01*
X39556202Y-101842328D01*
X39556206Y-101842335D01*
X39642452Y-101957544D01*
X39642455Y-101957547D01*
X39757664Y-102043793D01*
X39757671Y-102043797D01*
X39892517Y-102094091D01*
X39892516Y-102094091D01*
X39899444Y-102094835D01*
X39952127Y-102100500D01*
X41047872Y-102100499D01*
X41107483Y-102094091D01*
X41242331Y-102043796D01*
X41357546Y-101957546D01*
X41443796Y-101842331D01*
X41494091Y-101707483D01*
X41500500Y-101647873D01*
X41500499Y-99881902D01*
X61999500Y-99881902D01*
X61999500Y-100118097D01*
X62036446Y-100351368D01*
X62109433Y-100575996D01*
X62216657Y-100786433D01*
X62355483Y-100977510D01*
X62522490Y-101144517D01*
X62713567Y-101283343D01*
X62812991Y-101334002D01*
X62924003Y-101390566D01*
X62924005Y-101390566D01*
X62924008Y-101390568D01*
X63044412Y-101429689D01*
X63148631Y-101463553D01*
X63381903Y-101500500D01*
X63381908Y-101500500D01*
X63618097Y-101500500D01*
X63851368Y-101463553D01*
X64075992Y-101390568D01*
X64286433Y-101283343D01*
X64477510Y-101144517D01*
X64644517Y-100977510D01*
X64783343Y-100786433D01*
X64890568Y-100575992D01*
X64963553Y-100351368D01*
X65000500Y-100118097D01*
X65000500Y-99881902D01*
X71999500Y-99881902D01*
X71999500Y-100118097D01*
X72036446Y-100351368D01*
X72109433Y-100575996D01*
X72216657Y-100786433D01*
X72355483Y-100977510D01*
X72522490Y-101144517D01*
X72713567Y-101283343D01*
X72812991Y-101334002D01*
X72924003Y-101390566D01*
X72924005Y-101390566D01*
X72924008Y-101390568D01*
X73044412Y-101429689D01*
X73148631Y-101463553D01*
X73381903Y-101500500D01*
X73381908Y-101500500D01*
X73618097Y-101500500D01*
X73851368Y-101463553D01*
X74075992Y-101390568D01*
X74286433Y-101283343D01*
X74477510Y-101144517D01*
X74644517Y-100977510D01*
X74783343Y-100786433D01*
X74890568Y-100575992D01*
X74963553Y-100351368D01*
X75000500Y-100118097D01*
X75000500Y-99881902D01*
X74963553Y-99648631D01*
X74890566Y-99424003D01*
X74783342Y-99213566D01*
X74644517Y-99022490D01*
X74477510Y-98855483D01*
X74286433Y-98716657D01*
X74075996Y-98609433D01*
X73851368Y-98536446D01*
X73618097Y-98499500D01*
X73618092Y-98499500D01*
X73381908Y-98499500D01*
X73381903Y-98499500D01*
X73148631Y-98536446D01*
X72924003Y-98609433D01*
X72713566Y-98716657D01*
X72604550Y-98795862D01*
X72522490Y-98855483D01*
X72522488Y-98855485D01*
X72522487Y-98855485D01*
X72355485Y-99022487D01*
X72355485Y-99022488D01*
X72355483Y-99022490D01*
X72295862Y-99104550D01*
X72216657Y-99213566D01*
X72109433Y-99424003D01*
X72036446Y-99648631D01*
X71999500Y-99881902D01*
X65000500Y-99881902D01*
X64963553Y-99648631D01*
X64890566Y-99424003D01*
X64783342Y-99213566D01*
X64644517Y-99022490D01*
X64477510Y-98855483D01*
X64286433Y-98716657D01*
X64075996Y-98609433D01*
X63851368Y-98536446D01*
X63618097Y-98499500D01*
X63618092Y-98499500D01*
X63381908Y-98499500D01*
X63381903Y-98499500D01*
X63148631Y-98536446D01*
X62924003Y-98609433D01*
X62713566Y-98716657D01*
X62604550Y-98795862D01*
X62522490Y-98855483D01*
X62522488Y-98855485D01*
X62522487Y-98855485D01*
X62355485Y-99022487D01*
X62355485Y-99022488D01*
X62355483Y-99022490D01*
X62295862Y-99104550D01*
X62216657Y-99213566D01*
X62109433Y-99424003D01*
X62036446Y-99648631D01*
X61999500Y-99881902D01*
X41500499Y-99881902D01*
X41500499Y-98352135D01*
X96799500Y-98352135D01*
X96799500Y-101647870D01*
X96799501Y-101647876D01*
X96805908Y-101707483D01*
X96856202Y-101842328D01*
X96856206Y-101842335D01*
X96942452Y-101957544D01*
X96942455Y-101957547D01*
X97057664Y-102043793D01*
X97057671Y-102043797D01*
X97192517Y-102094091D01*
X97192516Y-102094091D01*
X97199444Y-102094835D01*
X97252127Y-102100500D01*
X98347872Y-102100499D01*
X98407483Y-102094091D01*
X98542331Y-102043796D01*
X98657546Y-101957546D01*
X98743796Y-101842331D01*
X98794091Y-101707483D01*
X98800500Y-101647873D01*
X98800499Y-98352135D01*
X105499500Y-98352135D01*
X105499500Y-101647870D01*
X105499501Y-101647876D01*
X105505908Y-101707483D01*
X105556202Y-101842328D01*
X105556206Y-101842335D01*
X105642452Y-101957544D01*
X105642455Y-101957547D01*
X105757664Y-102043793D01*
X105757671Y-102043797D01*
X105892517Y-102094091D01*
X105892516Y-102094091D01*
X105899444Y-102094835D01*
X105952127Y-102100500D01*
X107047872Y-102100499D01*
X107107483Y-102094091D01*
X107242331Y-102043796D01*
X107357546Y-101957546D01*
X107443796Y-101842331D01*
X107494091Y-101707483D01*
X107500500Y-101647873D01*
X107500499Y-98352128D01*
X107494091Y-98292517D01*
X107443796Y-98157669D01*
X107443795Y-98157668D01*
X107443793Y-98157664D01*
X107357547Y-98042455D01*
X107357544Y-98042452D01*
X107242335Y-97956206D01*
X107242328Y-97956202D01*
X107107482Y-97905908D01*
X107107483Y-97905908D01*
X107047883Y-97899501D01*
X107047881Y-97899500D01*
X107047873Y-97899500D01*
X107047864Y-97899500D01*
X105952129Y-97899500D01*
X105952123Y-97899501D01*
X105892516Y-97905908D01*
X105757671Y-97956202D01*
X105757664Y-97956206D01*
X105642455Y-98042452D01*
X105642452Y-98042455D01*
X105556206Y-98157664D01*
X105556202Y-98157671D01*
X105505908Y-98292517D01*
X105499501Y-98352116D01*
X105499501Y-98352123D01*
X105499500Y-98352135D01*
X98800499Y-98352135D01*
X98800499Y-98352128D01*
X98794091Y-98292517D01*
X98743796Y-98157669D01*
X98743795Y-98157668D01*
X98743793Y-98157664D01*
X98657547Y-98042455D01*
X98657544Y-98042452D01*
X98542335Y-97956206D01*
X98542328Y-97956202D01*
X98407482Y-97905908D01*
X98407483Y-97905908D01*
X98347883Y-97899501D01*
X98347881Y-97899500D01*
X98347873Y-97899500D01*
X98347864Y-97899500D01*
X97252129Y-97899500D01*
X97252123Y-97899501D01*
X97192516Y-97905908D01*
X97057671Y-97956202D01*
X97057664Y-97956206D01*
X96942455Y-98042452D01*
X96942452Y-98042455D01*
X96856206Y-98157664D01*
X96856202Y-98157671D01*
X96805908Y-98292517D01*
X96799501Y-98352116D01*
X96799501Y-98352123D01*
X96799500Y-98352135D01*
X41500499Y-98352135D01*
X41500499Y-98352128D01*
X41494091Y-98292517D01*
X41443796Y-98157669D01*
X41443795Y-98157668D01*
X41443793Y-98157664D01*
X41357547Y-98042455D01*
X41357544Y-98042452D01*
X41242335Y-97956206D01*
X41242328Y-97956202D01*
X41181167Y-97933391D01*
X41125233Y-97891520D01*
X41100816Y-97826056D01*
X41100500Y-97817209D01*
X41100500Y-71582648D01*
X44939500Y-71582648D01*
X44939500Y-71787351D01*
X44971522Y-71989534D01*
X45034781Y-72184223D01*
X45127715Y-72366613D01*
X45248028Y-72532213D01*
X45392786Y-72676971D01*
X45547749Y-72789556D01*
X45558390Y-72797287D01*
X45649840Y-72843883D01*
X45651080Y-72844515D01*
X45701876Y-72892490D01*
X45718671Y-72960311D01*
X45696134Y-73026446D01*
X45651080Y-73065485D01*
X45558386Y-73112715D01*
X45392786Y-73233028D01*
X45248028Y-73377786D01*
X45127715Y-73543386D01*
X45034781Y-73725776D01*
X44971522Y-73920465D01*
X44944419Y-74091593D01*
X44939500Y-74122648D01*
X44939500Y-74327352D01*
X44941306Y-74338753D01*
X44971522Y-74529534D01*
X45034781Y-74724223D01*
X45084036Y-74820889D01*
X45124284Y-74899881D01*
X45127715Y-74906613D01*
X45248028Y-75072213D01*
X45392786Y-75216971D01*
X45489910Y-75287534D01*
X45558390Y-75337287D01*
X45642217Y-75379999D01*
X45651080Y-75384515D01*
X45701876Y-75432490D01*
X45718671Y-75500311D01*
X45696134Y-75566446D01*
X45651080Y-75605485D01*
X45558386Y-75652715D01*
X45392786Y-75773028D01*
X45248028Y-75917786D01*
X45127715Y-76083386D01*
X45034781Y-76265776D01*
X44971522Y-76460465D01*
X44939500Y-76662648D01*
X44939500Y-76867351D01*
X44971522Y-77069534D01*
X45034781Y-77264223D01*
X45127715Y-77446613D01*
X45248028Y-77612213D01*
X45392786Y-77756971D01*
X45547749Y-77869556D01*
X45558390Y-77877287D01*
X45649840Y-77923883D01*
X45651080Y-77924515D01*
X45701876Y-77972490D01*
X45718671Y-78040311D01*
X45696134Y-78106446D01*
X45651080Y-78145485D01*
X45558386Y-78192715D01*
X45392786Y-78313028D01*
X45248028Y-78457786D01*
X45127715Y-78623386D01*
X45034781Y-78805776D01*
X44971522Y-79000465D01*
X44939500Y-79202648D01*
X44939500Y-79407351D01*
X44971522Y-79609534D01*
X45034781Y-79804223D01*
X45127715Y-79986613D01*
X45248028Y-80152213D01*
X45392786Y-80296971D01*
X45547749Y-80409556D01*
X45558390Y-80417287D01*
X45649840Y-80463883D01*
X45651080Y-80464515D01*
X45701876Y-80512490D01*
X45718671Y-80580311D01*
X45696134Y-80646446D01*
X45651080Y-80685485D01*
X45558386Y-80732715D01*
X45392786Y-80853028D01*
X45248028Y-80997786D01*
X45127715Y-81163386D01*
X45034781Y-81345776D01*
X44971522Y-81540465D01*
X44939500Y-81742648D01*
X44939500Y-81947351D01*
X44971522Y-82149534D01*
X45034781Y-82344223D01*
X45127715Y-82526613D01*
X45248028Y-82692213D01*
X45392786Y-82836971D01*
X45547749Y-82949556D01*
X45558390Y-82957287D01*
X45649840Y-83003883D01*
X45651080Y-83004515D01*
X45701876Y-83052490D01*
X45718671Y-83120311D01*
X45696134Y-83186446D01*
X45651080Y-83225485D01*
X45558386Y-83272715D01*
X45392786Y-83393028D01*
X45248028Y-83537786D01*
X45127715Y-83703386D01*
X45034781Y-83885776D01*
X44971522Y-84080465D01*
X44939500Y-84282648D01*
X44939500Y-84487351D01*
X44971522Y-84689534D01*
X45034781Y-84884223D01*
X45127715Y-85066613D01*
X45248028Y-85232213D01*
X45392786Y-85376971D01*
X45547749Y-85489556D01*
X45558390Y-85497287D01*
X45674607Y-85556503D01*
X45740776Y-85590218D01*
X45740778Y-85590218D01*
X45740781Y-85590220D01*
X45845137Y-85624127D01*
X45935465Y-85653477D01*
X46036557Y-85669488D01*
X46137648Y-85685500D01*
X46137649Y-85685500D01*
X46342351Y-85685500D01*
X46342352Y-85685500D01*
X46544534Y-85653477D01*
X46739219Y-85590220D01*
X46921610Y-85497287D01*
X47014590Y-85429732D01*
X47087213Y-85376971D01*
X47087215Y-85376968D01*
X47087219Y-85376966D01*
X47231966Y-85232219D01*
X47231968Y-85232215D01*
X47231971Y-85232213D01*
X47295687Y-85144514D01*
X47352287Y-85066610D01*
X47445220Y-84884219D01*
X47508477Y-84689534D01*
X47540500Y-84487352D01*
X47540500Y-84282648D01*
X47514437Y-84118097D01*
X47508477Y-84080465D01*
X47479127Y-83990137D01*
X47445220Y-83885781D01*
X47445218Y-83885778D01*
X47445218Y-83885776D01*
X47411503Y-83819607D01*
X47352287Y-83703390D01*
X47344556Y-83692749D01*
X47231971Y-83537786D01*
X47087213Y-83393028D01*
X46921614Y-83272715D01*
X46915006Y-83269348D01*
X46828917Y-83225483D01*
X46778123Y-83177511D01*
X46761328Y-83109690D01*
X46783865Y-83043555D01*
X46828917Y-83004516D01*
X46921610Y-82957287D01*
X47061730Y-82855485D01*
X47087213Y-82836971D01*
X47087215Y-82836968D01*
X47087219Y-82836966D01*
X47231966Y-82692219D01*
X47231968Y-82692215D01*
X47231971Y-82692213D01*
X47292114Y-82609432D01*
X47352287Y-82526610D01*
X47445220Y-82344219D01*
X47508477Y-82149534D01*
X47540500Y-81947352D01*
X47540500Y-81742648D01*
X47508477Y-81540466D01*
X47445220Y-81345781D01*
X47445218Y-81345778D01*
X47445218Y-81345776D01*
X47411503Y-81279607D01*
X47352287Y-81163390D01*
X47344556Y-81152749D01*
X47231971Y-80997786D01*
X47087213Y-80853028D01*
X46921614Y-80732715D01*
X46915006Y-80729348D01*
X46828917Y-80685483D01*
X46778123Y-80637511D01*
X46761328Y-80569690D01*
X46783865Y-80503555D01*
X46828917Y-80464516D01*
X46921610Y-80417287D01*
X46942770Y-80401913D01*
X47087213Y-80296971D01*
X47087215Y-80296968D01*
X47087219Y-80296966D01*
X47231966Y-80152219D01*
X47231968Y-80152215D01*
X47231971Y-80152213D01*
X47284732Y-80079590D01*
X47352287Y-79986610D01*
X47445220Y-79804219D01*
X47508477Y-79609534D01*
X47540500Y-79407352D01*
X47540500Y-79202648D01*
X47508477Y-79000466D01*
X47445220Y-78805781D01*
X47445218Y-78805778D01*
X47445218Y-78805776D01*
X47411503Y-78739607D01*
X47352287Y-78623390D01*
X47344556Y-78612749D01*
X47231971Y-78457786D01*
X47087213Y-78313028D01*
X46921614Y-78192715D01*
X46915006Y-78189348D01*
X46828917Y-78145483D01*
X46778123Y-78097511D01*
X46761328Y-78029690D01*
X46783865Y-77963555D01*
X46828917Y-77924516D01*
X46921610Y-77877287D01*
X46942770Y-77861913D01*
X47087213Y-77756971D01*
X47087215Y-77756968D01*
X47087219Y-77756966D01*
X47231966Y-77612219D01*
X47231968Y-77612215D01*
X47231971Y-77612213D01*
X47284732Y-77539590D01*
X47352287Y-77446610D01*
X47445220Y-77264219D01*
X47508477Y-77069534D01*
X47540500Y-76867352D01*
X47540500Y-76662648D01*
X47508477Y-76460466D01*
X47445220Y-76265781D01*
X47445218Y-76265778D01*
X47445218Y-76265776D01*
X47395286Y-76167780D01*
X47352287Y-76083390D01*
X47344556Y-76072749D01*
X47231971Y-75917786D01*
X47087213Y-75773028D01*
X46921614Y-75652715D01*
X46915006Y-75649348D01*
X46828917Y-75605483D01*
X46778123Y-75557511D01*
X46761328Y-75489690D01*
X46783865Y-75423555D01*
X46828917Y-75384516D01*
X46921610Y-75337287D01*
X47016185Y-75268575D01*
X47087213Y-75216971D01*
X47087215Y-75216968D01*
X47087219Y-75216966D01*
X47231966Y-75072219D01*
X47231968Y-75072215D01*
X47231971Y-75072213D01*
X47325883Y-74942952D01*
X47352287Y-74906610D01*
X47445220Y-74724219D01*
X47508477Y-74529534D01*
X47540500Y-74327352D01*
X47540500Y-74122648D01*
X47528426Y-74046416D01*
X47508477Y-73920465D01*
X47445218Y-73725776D01*
X47411503Y-73659607D01*
X47352287Y-73543390D01*
X47344556Y-73532749D01*
X47231971Y-73377786D01*
X47087213Y-73233028D01*
X46921614Y-73112715D01*
X46915006Y-73109348D01*
X46828917Y-73065483D01*
X46778123Y-73017511D01*
X46761328Y-72949690D01*
X46783865Y-72883555D01*
X46828917Y-72844516D01*
X46921610Y-72797287D01*
X46942770Y-72781913D01*
X47087213Y-72676971D01*
X47087215Y-72676968D01*
X47087219Y-72676966D01*
X47231966Y-72532219D01*
X47231968Y-72532215D01*
X47231971Y-72532213D01*
X47284732Y-72459590D01*
X47352287Y-72366610D01*
X47445220Y-72184219D01*
X47508477Y-71989534D01*
X47540500Y-71787352D01*
X47540500Y-71582648D01*
X47508477Y-71380466D01*
X47445220Y-71185781D01*
X47445218Y-71185778D01*
X47445218Y-71185776D01*
X47411503Y-71119607D01*
X47352287Y-71003390D01*
X47344556Y-70992749D01*
X47231971Y-70837786D01*
X47087213Y-70693028D01*
X46921613Y-70572715D01*
X46921612Y-70572714D01*
X46921610Y-70572713D01*
X46864653Y-70543691D01*
X46739223Y-70479781D01*
X46544534Y-70416522D01*
X46369995Y-70388878D01*
X46342352Y-70384500D01*
X46137648Y-70384500D01*
X46113329Y-70388351D01*
X45935465Y-70416522D01*
X45740776Y-70479781D01*
X45558386Y-70572715D01*
X45392786Y-70693028D01*
X45248028Y-70837786D01*
X45127715Y-71003386D01*
X45034781Y-71185776D01*
X44971522Y-71380465D01*
X44939500Y-71582648D01*
X41100500Y-71582648D01*
X41100500Y-62485096D01*
X41120185Y-62418057D01*
X41136814Y-62397420D01*
X44727819Y-58806414D01*
X44789142Y-58772930D01*
X44858834Y-58777914D01*
X44914767Y-58819786D01*
X44939184Y-58885250D01*
X44939500Y-58894096D01*
X44939500Y-59087351D01*
X44971522Y-59289534D01*
X45034781Y-59484223D01*
X45098691Y-59609653D01*
X45107274Y-59626497D01*
X45127715Y-59666613D01*
X45248028Y-59832213D01*
X45392786Y-59976971D01*
X45542144Y-60085484D01*
X45558390Y-60097287D01*
X45630424Y-60133990D01*
X45651629Y-60144795D01*
X45702425Y-60192770D01*
X45719220Y-60260591D01*
X45696682Y-60326726D01*
X45651629Y-60365765D01*
X45558650Y-60413140D01*
X45393105Y-60533417D01*
X45393104Y-60533417D01*
X45248417Y-60678104D01*
X45248417Y-60678105D01*
X45128140Y-60843650D01*
X45035244Y-61025970D01*
X44972009Y-61220586D01*
X44963391Y-61275000D01*
X45806988Y-61275000D01*
X45774075Y-61332007D01*
X45740000Y-61459174D01*
X45740000Y-61590826D01*
X45774075Y-61717993D01*
X45806988Y-61775000D01*
X44963391Y-61775000D01*
X44972009Y-61829413D01*
X45035244Y-62024029D01*
X45128140Y-62206349D01*
X45248417Y-62371894D01*
X45248417Y-62371895D01*
X45393104Y-62516582D01*
X45558650Y-62636859D01*
X45652179Y-62684515D01*
X45702975Y-62732490D01*
X45719770Y-62800311D01*
X45697232Y-62866446D01*
X45652179Y-62905485D01*
X45558650Y-62953140D01*
X45393105Y-63073417D01*
X45393104Y-63073417D01*
X45248417Y-63218104D01*
X45248417Y-63218105D01*
X45128140Y-63383650D01*
X45035244Y-63565970D01*
X44972009Y-63760586D01*
X44963391Y-63815000D01*
X45806988Y-63815000D01*
X45774075Y-63872007D01*
X45740000Y-63999174D01*
X45740000Y-64130826D01*
X45774075Y-64257993D01*
X45806988Y-64315000D01*
X44963391Y-64315000D01*
X44972009Y-64369413D01*
X45035244Y-64564029D01*
X45128140Y-64746349D01*
X45248417Y-64911894D01*
X45248417Y-64911895D01*
X45393104Y-65056582D01*
X45558652Y-65176861D01*
X45651628Y-65224234D01*
X45702425Y-65272208D01*
X45719220Y-65340029D01*
X45696683Y-65406164D01*
X45651630Y-65445203D01*
X45558388Y-65492713D01*
X45392786Y-65613028D01*
X45248028Y-65757786D01*
X45127715Y-65923386D01*
X45034781Y-66105776D01*
X44971522Y-66300465D01*
X44939500Y-66502648D01*
X44939500Y-66707351D01*
X44971522Y-66909534D01*
X45034781Y-67104223D01*
X45127715Y-67286613D01*
X45248028Y-67452213D01*
X45392786Y-67596971D01*
X45547749Y-67709556D01*
X45558390Y-67717287D01*
X45651080Y-67764515D01*
X45740776Y-67810218D01*
X45740778Y-67810218D01*
X45740781Y-67810220D01*
X45845137Y-67844127D01*
X45935465Y-67873477D01*
X45954697Y-67876523D01*
X46137648Y-67905500D01*
X46137649Y-67905500D01*
X46342351Y-67905500D01*
X46342352Y-67905500D01*
X46544534Y-67873477D01*
X46739219Y-67810220D01*
X46921610Y-67717287D01*
X47024896Y-67642246D01*
X47087213Y-67596971D01*
X47087215Y-67596968D01*
X47087219Y-67596966D01*
X47231966Y-67452219D01*
X47231968Y-67452215D01*
X47231971Y-67452213D01*
X47302520Y-67355109D01*
X47352287Y-67286610D01*
X47445220Y-67104219D01*
X47508477Y-66909534D01*
X47540500Y-66707352D01*
X47540500Y-66502648D01*
X93199500Y-66502648D01*
X93199500Y-66707351D01*
X93231522Y-66909534D01*
X93294781Y-67104223D01*
X93387715Y-67286613D01*
X93508028Y-67452213D01*
X93652786Y-67596971D01*
X93807749Y-67709556D01*
X93818390Y-67717287D01*
X93909840Y-67763883D01*
X93911080Y-67764515D01*
X93961876Y-67812490D01*
X93978671Y-67880311D01*
X93956134Y-67946446D01*
X93911080Y-67985485D01*
X93818386Y-68032715D01*
X93652786Y-68153028D01*
X93508028Y-68297786D01*
X93387715Y-68463386D01*
X93294781Y-68645776D01*
X93231522Y-68840465D01*
X93199500Y-69042648D01*
X93199500Y-69247351D01*
X93231522Y-69449534D01*
X93294781Y-69644223D01*
X93387715Y-69826613D01*
X93508028Y-69992213D01*
X93652786Y-70136971D01*
X93807749Y-70249556D01*
X93818390Y-70257287D01*
X93909840Y-70303883D01*
X93911080Y-70304515D01*
X93961876Y-70352490D01*
X93978671Y-70420311D01*
X93956134Y-70486446D01*
X93911080Y-70525485D01*
X93818386Y-70572715D01*
X93652786Y-70693028D01*
X93508028Y-70837786D01*
X93387715Y-71003386D01*
X93294781Y-71185776D01*
X93231522Y-71380465D01*
X93199500Y-71582648D01*
X93199500Y-71787351D01*
X93231522Y-71989534D01*
X93294781Y-72184223D01*
X93387715Y-72366613D01*
X93508028Y-72532213D01*
X93652786Y-72676971D01*
X93807749Y-72789556D01*
X93818390Y-72797287D01*
X93909840Y-72843883D01*
X93911080Y-72844515D01*
X93961876Y-72892490D01*
X93978671Y-72960311D01*
X93956134Y-73026446D01*
X93911080Y-73065485D01*
X93818386Y-73112715D01*
X93652786Y-73233028D01*
X93508028Y-73377786D01*
X93387715Y-73543386D01*
X93294781Y-73725776D01*
X93231522Y-73920465D01*
X93204419Y-74091593D01*
X93199500Y-74122648D01*
X93199500Y-74327352D01*
X93201306Y-74338753D01*
X93231522Y-74529534D01*
X93294781Y-74724223D01*
X93344036Y-74820889D01*
X93384284Y-74899881D01*
X93387715Y-74906613D01*
X93508028Y-75072213D01*
X93652786Y-75216971D01*
X93749910Y-75287534D01*
X93818390Y-75337287D01*
X93902217Y-75379999D01*
X93911080Y-75384515D01*
X93961876Y-75432490D01*
X93978671Y-75500311D01*
X93956134Y-75566446D01*
X93911080Y-75605485D01*
X93818386Y-75652715D01*
X93652786Y-75773028D01*
X93508028Y-75917786D01*
X93387715Y-76083386D01*
X93294781Y-76265776D01*
X93231522Y-76460465D01*
X93199500Y-76662648D01*
X93199500Y-76867351D01*
X93231522Y-77069534D01*
X93294781Y-77264223D01*
X93387715Y-77446613D01*
X93508028Y-77612213D01*
X93652786Y-77756971D01*
X93807749Y-77869556D01*
X93818390Y-77877287D01*
X93909840Y-77923883D01*
X93911080Y-77924515D01*
X93961876Y-77972490D01*
X93978671Y-78040311D01*
X93956134Y-78106446D01*
X93911080Y-78145485D01*
X93818386Y-78192715D01*
X93652786Y-78313028D01*
X93508028Y-78457786D01*
X93387715Y-78623386D01*
X93294781Y-78805776D01*
X93231522Y-79000465D01*
X93199500Y-79202648D01*
X93199500Y-79407351D01*
X93231522Y-79609534D01*
X93294781Y-79804223D01*
X93387715Y-79986613D01*
X93508028Y-80152213D01*
X93652786Y-80296971D01*
X93807749Y-80409556D01*
X93818390Y-80417287D01*
X93909840Y-80463883D01*
X93911080Y-80464515D01*
X93961876Y-80512490D01*
X93978671Y-80580311D01*
X93956134Y-80646446D01*
X93911080Y-80685485D01*
X93818386Y-80732715D01*
X93652786Y-80853028D01*
X93508028Y-80997786D01*
X93387715Y-81163386D01*
X93294781Y-81345776D01*
X93231522Y-81540465D01*
X93199500Y-81742648D01*
X93199500Y-81947351D01*
X93231522Y-82149534D01*
X93294781Y-82344223D01*
X93387715Y-82526613D01*
X93508028Y-82692213D01*
X93652786Y-82836971D01*
X93807749Y-82949556D01*
X93818390Y-82957287D01*
X93909840Y-83003883D01*
X93911080Y-83004515D01*
X93961876Y-83052490D01*
X93978671Y-83120311D01*
X93956134Y-83186446D01*
X93911080Y-83225485D01*
X93818386Y-83272715D01*
X93652786Y-83393028D01*
X93508028Y-83537786D01*
X93387715Y-83703386D01*
X93294781Y-83885776D01*
X93231522Y-84080465D01*
X93199500Y-84282648D01*
X93199500Y-84487351D01*
X93231522Y-84689534D01*
X93294781Y-84884223D01*
X93387715Y-85066613D01*
X93508028Y-85232213D01*
X93652786Y-85376971D01*
X93807749Y-85489556D01*
X93818390Y-85497287D01*
X93934607Y-85556503D01*
X94000776Y-85590218D01*
X94000778Y-85590218D01*
X94000781Y-85590220D01*
X94105137Y-85624127D01*
X94195465Y-85653477D01*
X94296557Y-85669488D01*
X94397648Y-85685500D01*
X94397649Y-85685500D01*
X94602351Y-85685500D01*
X94602352Y-85685500D01*
X94804534Y-85653477D01*
X94999219Y-85590220D01*
X95181610Y-85497287D01*
X95274590Y-85429732D01*
X95347213Y-85376971D01*
X95347215Y-85376968D01*
X95347219Y-85376966D01*
X95491966Y-85232219D01*
X95491968Y-85232215D01*
X95491971Y-85232213D01*
X95555687Y-85144514D01*
X95612287Y-85066610D01*
X95705220Y-84884219D01*
X95768477Y-84689534D01*
X95800500Y-84487352D01*
X95800500Y-84282648D01*
X95768477Y-84080466D01*
X95768476Y-84080462D01*
X95768476Y-84080461D01*
X95744111Y-84005475D01*
X95705220Y-83885781D01*
X95703244Y-83881902D01*
X100999500Y-83881902D01*
X100999500Y-84118097D01*
X101036446Y-84351368D01*
X101109433Y-84575996D01*
X101200641Y-84755000D01*
X101216657Y-84786433D01*
X101355483Y-84977510D01*
X101522490Y-85144517D01*
X101713567Y-85283343D01*
X101812991Y-85334002D01*
X101924003Y-85390566D01*
X101924005Y-85390566D01*
X101924008Y-85390568D01*
X102044412Y-85429689D01*
X102148631Y-85463553D01*
X102381903Y-85500500D01*
X102381908Y-85500500D01*
X102618097Y-85500500D01*
X102851368Y-85463553D01*
X103075992Y-85390568D01*
X103286433Y-85283343D01*
X103477510Y-85144517D01*
X103644517Y-84977510D01*
X103783343Y-84786433D01*
X103890568Y-84575992D01*
X103963553Y-84351368D01*
X103974437Y-84282648D01*
X104000500Y-84118097D01*
X104000500Y-83881902D01*
X103963553Y-83648631D01*
X103890566Y-83424003D01*
X103803020Y-83252186D01*
X103783343Y-83213567D01*
X103644517Y-83022490D01*
X103477510Y-82855483D01*
X103286433Y-82716657D01*
X103238459Y-82692213D01*
X103075996Y-82609433D01*
X102851368Y-82536446D01*
X102618097Y-82499500D01*
X102618092Y-82499500D01*
X102381908Y-82499500D01*
X102381903Y-82499500D01*
X102148631Y-82536446D01*
X101924003Y-82609433D01*
X101713566Y-82716657D01*
X101604550Y-82795862D01*
X101522490Y-82855483D01*
X101522488Y-82855485D01*
X101522487Y-82855485D01*
X101355485Y-83022487D01*
X101355485Y-83022488D01*
X101355483Y-83022490D01*
X101335336Y-83050220D01*
X101216657Y-83213566D01*
X101109433Y-83424003D01*
X101036446Y-83648631D01*
X100999500Y-83881902D01*
X95703244Y-83881902D01*
X95612287Y-83703390D01*
X95604556Y-83692749D01*
X95491971Y-83537786D01*
X95347213Y-83393028D01*
X95181614Y-83272715D01*
X95175006Y-83269348D01*
X95088917Y-83225483D01*
X95038123Y-83177511D01*
X95021328Y-83109690D01*
X95043865Y-83043555D01*
X95088917Y-83004516D01*
X95181610Y-82957287D01*
X95321730Y-82855485D01*
X95347213Y-82836971D01*
X95347215Y-82836968D01*
X95347219Y-82836966D01*
X95491966Y-82692219D01*
X95491968Y-82692215D01*
X95491971Y-82692213D01*
X95552114Y-82609432D01*
X95612287Y-82526610D01*
X95705220Y-82344219D01*
X95768477Y-82149534D01*
X95800500Y-81947352D01*
X95800500Y-81742648D01*
X95768477Y-81540466D01*
X95705220Y-81345781D01*
X95705218Y-81345778D01*
X95705218Y-81345776D01*
X95671503Y-81279607D01*
X95612287Y-81163390D01*
X95604556Y-81152749D01*
X95491971Y-80997786D01*
X95347213Y-80853028D01*
X95181614Y-80732715D01*
X95175006Y-80729348D01*
X95088917Y-80685483D01*
X95038123Y-80637511D01*
X95021328Y-80569690D01*
X95043865Y-80503555D01*
X95088917Y-80464516D01*
X95181610Y-80417287D01*
X95202770Y-80401913D01*
X95347213Y-80296971D01*
X95347215Y-80296968D01*
X95347219Y-80296966D01*
X95491966Y-80152219D01*
X95491968Y-80152215D01*
X95491971Y-80152213D01*
X95544732Y-80079590D01*
X95612287Y-79986610D01*
X95705220Y-79804219D01*
X95768477Y-79609534D01*
X95800500Y-79407352D01*
X95800500Y-79202648D01*
X95768477Y-79000466D01*
X95705220Y-78805781D01*
X95705218Y-78805778D01*
X95705218Y-78805776D01*
X95671503Y-78739607D01*
X95612287Y-78623390D01*
X95604556Y-78612749D01*
X95491971Y-78457786D01*
X95347213Y-78313028D01*
X95181614Y-78192715D01*
X95175006Y-78189348D01*
X95088917Y-78145483D01*
X95038123Y-78097511D01*
X95021328Y-78029690D01*
X95043865Y-77963555D01*
X95088917Y-77924516D01*
X95181610Y-77877287D01*
X95202770Y-77861913D01*
X95347213Y-77756971D01*
X95347215Y-77756968D01*
X95347219Y-77756966D01*
X95491966Y-77612219D01*
X95491968Y-77612215D01*
X95491971Y-77612213D01*
X95544732Y-77539590D01*
X95612287Y-77446610D01*
X95705220Y-77264219D01*
X95768477Y-77069534D01*
X95800500Y-76867352D01*
X95800500Y-76662648D01*
X95768477Y-76460466D01*
X95705220Y-76265781D01*
X95705218Y-76265778D01*
X95705218Y-76265776D01*
X95655286Y-76167780D01*
X95612287Y-76083390D01*
X95604556Y-76072749D01*
X95491971Y-75917786D01*
X95347213Y-75773028D01*
X95181614Y-75652715D01*
X95175006Y-75649348D01*
X95088917Y-75605483D01*
X95038123Y-75557511D01*
X95021328Y-75489690D01*
X95043865Y-75423555D01*
X95088917Y-75384516D01*
X95181610Y-75337287D01*
X95276185Y-75268575D01*
X95347213Y-75216971D01*
X95347215Y-75216968D01*
X95347219Y-75216966D01*
X95491966Y-75072219D01*
X95491968Y-75072215D01*
X95491971Y-75072213D01*
X95585883Y-74942952D01*
X95612287Y-74906610D01*
X95705220Y-74724219D01*
X95768477Y-74529534D01*
X95800500Y-74327352D01*
X95800500Y-74134097D01*
X95820185Y-74067058D01*
X95872989Y-74021303D01*
X95942147Y-74011359D01*
X96005703Y-74040384D01*
X96012181Y-74046416D01*
X97950139Y-75984374D01*
X97950149Y-75984385D01*
X97954479Y-75988715D01*
X97954480Y-75988716D01*
X98066284Y-76100520D01*
X98066286Y-76100521D01*
X98066290Y-76100524D01*
X98182800Y-76167790D01*
X98203216Y-76179577D01*
X98315019Y-76209534D01*
X98355942Y-76220500D01*
X98355943Y-76220500D01*
X100825273Y-76220500D01*
X100892312Y-76240185D01*
X100938067Y-76292989D01*
X100939834Y-76297048D01*
X100971590Y-76373717D01*
X100971593Y-76373722D01*
X100971595Y-76373726D01*
X101083052Y-76566774D01*
X101083057Y-76566780D01*
X101083058Y-76566782D01*
X101218751Y-76743622D01*
X101218757Y-76743629D01*
X101376370Y-76901242D01*
X101376376Y-76901247D01*
X101553226Y-77036948D01*
X101746274Y-77148405D01*
X101952219Y-77233710D01*
X102167537Y-77291404D01*
X102388543Y-77320500D01*
X102388550Y-77320500D01*
X102611450Y-77320500D01*
X102611457Y-77320500D01*
X102832463Y-77291404D01*
X103047781Y-77233710D01*
X103253726Y-77148405D01*
X103446774Y-77036948D01*
X103623624Y-76901247D01*
X103781247Y-76743624D01*
X103916948Y-76566774D01*
X104028405Y-76373726D01*
X104113710Y-76167781D01*
X104171404Y-75952463D01*
X104200500Y-75731457D01*
X104200500Y-75508543D01*
X104171404Y-75287537D01*
X104113710Y-75072219D01*
X104028405Y-74866274D01*
X103916948Y-74673226D01*
X103781247Y-74496376D01*
X103781242Y-74496370D01*
X103623629Y-74338757D01*
X103623622Y-74338751D01*
X103446782Y-74203058D01*
X103446780Y-74203057D01*
X103446774Y-74203052D01*
X103253726Y-74091595D01*
X103253722Y-74091593D01*
X103047790Y-74006293D01*
X103047783Y-74006291D01*
X103047781Y-74006290D01*
X102832463Y-73948596D01*
X102832457Y-73948595D01*
X102832452Y-73948594D01*
X102611466Y-73919501D01*
X102611463Y-73919500D01*
X102611457Y-73919500D01*
X102388543Y-73919500D01*
X102388537Y-73919500D01*
X102388533Y-73919501D01*
X102167547Y-73948594D01*
X102167540Y-73948595D01*
X102167537Y-73948596D01*
X101952219Y-74006290D01*
X101952209Y-74006293D01*
X101746277Y-74091593D01*
X101746273Y-74091595D01*
X101553226Y-74203052D01*
X101553217Y-74203058D01*
X101376377Y-74338751D01*
X101376370Y-74338757D01*
X101218757Y-74496370D01*
X101218751Y-74496377D01*
X101083058Y-74673217D01*
X101083052Y-74673226D01*
X100971595Y-74866273D01*
X100971590Y-74866282D01*
X100939834Y-74942952D01*
X100895994Y-74997356D01*
X100829700Y-75019421D01*
X100825273Y-75019500D01*
X98735097Y-75019500D01*
X98668058Y-74999815D01*
X98647416Y-74983181D01*
X95794077Y-72129842D01*
X95760592Y-72068519D01*
X95763828Y-72003841D01*
X95768477Y-71989534D01*
X95800500Y-71787352D01*
X95800500Y-71582648D01*
X95768477Y-71380466D01*
X95705220Y-71185781D01*
X95705218Y-71185778D01*
X95705218Y-71185776D01*
X95671503Y-71119607D01*
X95612287Y-71003390D01*
X95604556Y-70992749D01*
X95491971Y-70837786D01*
X95347213Y-70693028D01*
X95181614Y-70572715D01*
X95175006Y-70569348D01*
X95088917Y-70525483D01*
X95038123Y-70477511D01*
X95021328Y-70409690D01*
X95043865Y-70343555D01*
X95088917Y-70304516D01*
X95181610Y-70257287D01*
X95202770Y-70241913D01*
X95347213Y-70136971D01*
X95347215Y-70136968D01*
X95347219Y-70136966D01*
X95491966Y-69992219D01*
X95491968Y-69992215D01*
X95491971Y-69992213D01*
X95544732Y-69919590D01*
X95612287Y-69826610D01*
X95705220Y-69644219D01*
X95768477Y-69449534D01*
X95800500Y-69247352D01*
X95800500Y-69042648D01*
X95768477Y-68840466D01*
X95705220Y-68645781D01*
X95705218Y-68645778D01*
X95705218Y-68645776D01*
X95671503Y-68579607D01*
X95612287Y-68463390D01*
X95604556Y-68452749D01*
X95491971Y-68297786D01*
X95347213Y-68153028D01*
X95181614Y-68032715D01*
X95175006Y-68029348D01*
X95088917Y-67985483D01*
X95038123Y-67937511D01*
X95021328Y-67869690D01*
X95043865Y-67803555D01*
X95088917Y-67764516D01*
X95181610Y-67717287D01*
X95202770Y-67701913D01*
X95347213Y-67596971D01*
X95347215Y-67596968D01*
X95347219Y-67596966D01*
X95491966Y-67452219D01*
X95491968Y-67452215D01*
X95491971Y-67452213D01*
X95562520Y-67355109D01*
X95612287Y-67286610D01*
X95705220Y-67104219D01*
X95768477Y-66909534D01*
X95800500Y-66707352D01*
X95800500Y-66502648D01*
X95768477Y-66300466D01*
X95705220Y-66105781D01*
X95705218Y-66105778D01*
X95705218Y-66105776D01*
X95655785Y-66008760D01*
X95612287Y-65923390D01*
X95604556Y-65912749D01*
X95491971Y-65757786D01*
X95347213Y-65613028D01*
X95181613Y-65492715D01*
X95181612Y-65492714D01*
X95181610Y-65492713D01*
X95124653Y-65463691D01*
X94999223Y-65399781D01*
X94804534Y-65336522D01*
X94629995Y-65308878D01*
X94602352Y-65304500D01*
X94397648Y-65304500D01*
X94373329Y-65308351D01*
X94195465Y-65336522D01*
X94000776Y-65399781D01*
X93818386Y-65492715D01*
X93652786Y-65613028D01*
X93508028Y-65757786D01*
X93387715Y-65923386D01*
X93294781Y-66105776D01*
X93231522Y-66300465D01*
X93199500Y-66502648D01*
X47540500Y-66502648D01*
X47508477Y-66300466D01*
X47445220Y-66105781D01*
X47445218Y-66105778D01*
X47445218Y-66105776D01*
X47395785Y-66008760D01*
X47352287Y-65923390D01*
X47344556Y-65912749D01*
X47231971Y-65757786D01*
X47087213Y-65613028D01*
X46921611Y-65492713D01*
X46828369Y-65445203D01*
X46777574Y-65397229D01*
X46760779Y-65329407D01*
X46783317Y-65263273D01*
X46828371Y-65224234D01*
X46921347Y-65176861D01*
X47086894Y-65056582D01*
X47086895Y-65056582D01*
X47231582Y-64911895D01*
X47231582Y-64911894D01*
X47351859Y-64746349D01*
X47444755Y-64564029D01*
X47507990Y-64369413D01*
X47516609Y-64315000D01*
X46673012Y-64315000D01*
X46705925Y-64257993D01*
X46740000Y-64130826D01*
X46740000Y-63999174D01*
X46705925Y-63872007D01*
X46673012Y-63815000D01*
X47516609Y-63815000D01*
X47507990Y-63760586D01*
X47444755Y-63565970D01*
X47351859Y-63383650D01*
X47231582Y-63218105D01*
X47231582Y-63218104D01*
X47086895Y-63073417D01*
X46921349Y-62953140D01*
X46827820Y-62905485D01*
X46777024Y-62857511D01*
X46760229Y-62789690D01*
X46782766Y-62723555D01*
X46827820Y-62684515D01*
X46921349Y-62636859D01*
X47086894Y-62516582D01*
X47086895Y-62516582D01*
X47231582Y-62371895D01*
X47231582Y-62371894D01*
X47351859Y-62206349D01*
X47444755Y-62024029D01*
X47507990Y-61829413D01*
X47516609Y-61775000D01*
X46673012Y-61775000D01*
X46705925Y-61717993D01*
X46740000Y-61590826D01*
X46740000Y-61459174D01*
X46705925Y-61332007D01*
X46673012Y-61275000D01*
X47516609Y-61275000D01*
X47507990Y-61220586D01*
X47444755Y-61025970D01*
X47351859Y-60843650D01*
X47231582Y-60678105D01*
X47231582Y-60678104D01*
X47086895Y-60533417D01*
X46921349Y-60413140D01*
X46828370Y-60365765D01*
X46777574Y-60317790D01*
X46760779Y-60249969D01*
X46783316Y-60183835D01*
X46828370Y-60144795D01*
X46921610Y-60097287D01*
X47003884Y-60037512D01*
X47087213Y-59976971D01*
X47087215Y-59976968D01*
X47087219Y-59976966D01*
X47231966Y-59832219D01*
X47231968Y-59832215D01*
X47231971Y-59832213D01*
X47302520Y-59735109D01*
X47352287Y-59666610D01*
X47445220Y-59484219D01*
X47508477Y-59289534D01*
X47540500Y-59087352D01*
X47540500Y-58882648D01*
X47534614Y-58845485D01*
X47508477Y-58680465D01*
X47445218Y-58485776D01*
X47395785Y-58388760D01*
X47352287Y-58303390D01*
X47344556Y-58292749D01*
X47231971Y-58137786D01*
X47087213Y-57993028D01*
X46921614Y-57872715D01*
X46915006Y-57869348D01*
X46828917Y-57825483D01*
X46778123Y-57777511D01*
X46761328Y-57709690D01*
X46783865Y-57643555D01*
X46828917Y-57604516D01*
X46921610Y-57557287D01*
X47003884Y-57497512D01*
X47087213Y-57436971D01*
X47087215Y-57436968D01*
X47087219Y-57436966D01*
X47231966Y-57292219D01*
X47231968Y-57292215D01*
X47231971Y-57292213D01*
X47302520Y-57195109D01*
X47352287Y-57126610D01*
X47445220Y-56944219D01*
X47508477Y-56749534D01*
X47540500Y-56547352D01*
X47540500Y-56342648D01*
X47517356Y-56196523D01*
X47508477Y-56140465D01*
X47445218Y-55945776D01*
X47395785Y-55848760D01*
X47352287Y-55763390D01*
X47344556Y-55752749D01*
X47231971Y-55597786D01*
X47087213Y-55453028D01*
X46921614Y-55332715D01*
X46915006Y-55329348D01*
X46828917Y-55285483D01*
X46778123Y-55237511D01*
X46761328Y-55169690D01*
X46783865Y-55103555D01*
X46828917Y-55064516D01*
X46921610Y-55017287D01*
X47057781Y-54918354D01*
X47087213Y-54896971D01*
X47087215Y-54896968D01*
X47087219Y-54896966D01*
X47231966Y-54752219D01*
X47231968Y-54752215D01*
X47231971Y-54752213D01*
X47327690Y-54620465D01*
X47352287Y-54586610D01*
X47445220Y-54404219D01*
X47508477Y-54209534D01*
X47540500Y-54007352D01*
X47540500Y-53802648D01*
X47517356Y-53656523D01*
X47508477Y-53600465D01*
X47445218Y-53405776D01*
X47400490Y-53317993D01*
X47352287Y-53223390D01*
X47305560Y-53159075D01*
X47231971Y-53057786D01*
X47087213Y-52913028D01*
X46921614Y-52792715D01*
X46915006Y-52789348D01*
X46828917Y-52745483D01*
X46778123Y-52697511D01*
X46761328Y-52629690D01*
X46783865Y-52563555D01*
X46828917Y-52524516D01*
X46921610Y-52477287D01*
X47003475Y-52417809D01*
X47087213Y-52356971D01*
X47087215Y-52356968D01*
X47087219Y-52356966D01*
X47231966Y-52212219D01*
X47231968Y-52212215D01*
X47231971Y-52212213D01*
X47327690Y-52080465D01*
X47352287Y-52046610D01*
X47445220Y-51864219D01*
X47508477Y-51669534D01*
X47540500Y-51467352D01*
X47540500Y-51262648D01*
X47517356Y-51116523D01*
X47508477Y-51060465D01*
X47445218Y-50865776D01*
X47411503Y-50799607D01*
X47352287Y-50683390D01*
X47344556Y-50672749D01*
X47231971Y-50517786D01*
X47087219Y-50373034D01*
X47050930Y-50346669D01*
X47008264Y-50291339D01*
X47002285Y-50221726D01*
X47034890Y-50159931D01*
X47095728Y-50125573D01*
X47110562Y-50123060D01*
X47147483Y-50119091D01*
X47282328Y-50068797D01*
X47282327Y-50068797D01*
X47282331Y-50068796D01*
X47397546Y-49982546D01*
X47483796Y-49867331D01*
X47534091Y-49732483D01*
X47540500Y-49672873D01*
X47540499Y-47977128D01*
X47534091Y-47917517D01*
X47483796Y-47782669D01*
X47483795Y-47782668D01*
X47483793Y-47782664D01*
X47397547Y-47667455D01*
X47397544Y-47667452D01*
X47282335Y-47581206D01*
X47282328Y-47581202D01*
X47147482Y-47530908D01*
X47147483Y-47530908D01*
X47087883Y-47524501D01*
X47087881Y-47524500D01*
X47087873Y-47524500D01*
X47087864Y-47524500D01*
X45392129Y-47524500D01*
X45392123Y-47524501D01*
X45332516Y-47530908D01*
X45197671Y-47581202D01*
X45197664Y-47581206D01*
X45082455Y-47667452D01*
X45082452Y-47667455D01*
X44996206Y-47782664D01*
X44996202Y-47782671D01*
X44945908Y-47917517D01*
X44939501Y-47977116D01*
X44939501Y-47977123D01*
X44939500Y-47977135D01*
X44939500Y-49672870D01*
X44939501Y-49672876D01*
X44945908Y-49732483D01*
X44996202Y-49867328D01*
X44996206Y-49867335D01*
X45082452Y-49982544D01*
X45082455Y-49982547D01*
X45197664Y-50068793D01*
X45197671Y-50068797D01*
X45242618Y-50085561D01*
X45332517Y-50119091D01*
X45369441Y-50123060D01*
X45433989Y-50149796D01*
X45473838Y-50207188D01*
X45476333Y-50277013D01*
X45440681Y-50337102D01*
X45429071Y-50346666D01*
X45392784Y-50373030D01*
X45248028Y-50517786D01*
X45127715Y-50683386D01*
X45034781Y-50865776D01*
X44971522Y-51060465D01*
X44939500Y-51262648D01*
X44939500Y-51467351D01*
X44971522Y-51669534D01*
X45034781Y-51864223D01*
X45127715Y-52046613D01*
X45248028Y-52212213D01*
X45392786Y-52356971D01*
X45547749Y-52469556D01*
X45558390Y-52477287D01*
X45649840Y-52523883D01*
X45651080Y-52524515D01*
X45701876Y-52572490D01*
X45718671Y-52640311D01*
X45696134Y-52706446D01*
X45651080Y-52745485D01*
X45558386Y-52792715D01*
X45392786Y-52913028D01*
X45248028Y-53057786D01*
X45127715Y-53223386D01*
X45034781Y-53405776D01*
X44971522Y-53600465D01*
X44939500Y-53802648D01*
X44939500Y-54007351D01*
X44971522Y-54209534D01*
X45034781Y-54404223D01*
X45098691Y-54529653D01*
X45125557Y-54582379D01*
X45127715Y-54586613D01*
X45248028Y-54752213D01*
X45392786Y-54896971D01*
X45547387Y-55009293D01*
X45558390Y-55017287D01*
X45649840Y-55063883D01*
X45651080Y-55064515D01*
X45701876Y-55112490D01*
X45718671Y-55180311D01*
X45696134Y-55246446D01*
X45651080Y-55285485D01*
X45558386Y-55332715D01*
X45392786Y-55453028D01*
X45248028Y-55597786D01*
X45127715Y-55763386D01*
X45034781Y-55945776D01*
X44971522Y-56140465D01*
X44939500Y-56342648D01*
X44939500Y-56547351D01*
X44971522Y-56749534D01*
X44976173Y-56763848D01*
X44978165Y-56833690D01*
X44945921Y-56889842D01*
X40134596Y-61701167D01*
X40134589Y-61701174D01*
X40131286Y-61704478D01*
X40131284Y-61704480D01*
X40019480Y-61816284D01*
X39992284Y-61863390D01*
X39986483Y-61873435D01*
X39986483Y-61873437D01*
X39956656Y-61925099D01*
X39940423Y-61953215D01*
X39899499Y-62105943D01*
X39899499Y-62105945D01*
X39899499Y-62274046D01*
X39899500Y-62274059D01*
X39899500Y-97817209D01*
X39879815Y-97884248D01*
X39827011Y-97930003D01*
X39818833Y-97933391D01*
X39757671Y-97956202D01*
X39757664Y-97956206D01*
X39642455Y-98042452D01*
X39642452Y-98042455D01*
X39556206Y-98157664D01*
X39556202Y-98157671D01*
X39505908Y-98292517D01*
X39499501Y-98352116D01*
X39499501Y-98352123D01*
X39499500Y-98352135D01*
X32800499Y-98352135D01*
X32800499Y-98352128D01*
X32794091Y-98292517D01*
X32743796Y-98157669D01*
X32743795Y-98157668D01*
X32743793Y-98157664D01*
X32657547Y-98042455D01*
X32657544Y-98042452D01*
X32542335Y-97956206D01*
X32542328Y-97956202D01*
X32407482Y-97905908D01*
X32407483Y-97905908D01*
X32347883Y-97899501D01*
X32347881Y-97899500D01*
X32347873Y-97899500D01*
X32347864Y-97899500D01*
X31252129Y-97899500D01*
X31252123Y-97899501D01*
X31192516Y-97905908D01*
X31057671Y-97956202D01*
X31057664Y-97956206D01*
X30942455Y-98042452D01*
X30942452Y-98042455D01*
X30856206Y-98157664D01*
X30856202Y-98157671D01*
X30805908Y-98292517D01*
X30799501Y-98352116D01*
X30799501Y-98352123D01*
X30799500Y-98352135D01*
X24000500Y-98352135D01*
X24000500Y-90508549D01*
X29799500Y-90508549D01*
X29799500Y-90731450D01*
X29799501Y-90731466D01*
X29828594Y-90952452D01*
X29828595Y-90952457D01*
X29828596Y-90952463D01*
X29828597Y-90952465D01*
X29886290Y-91167780D01*
X29886293Y-91167790D01*
X29971593Y-91373722D01*
X29971595Y-91373726D01*
X30083052Y-91566774D01*
X30083057Y-91566780D01*
X30083058Y-91566782D01*
X30218751Y-91743622D01*
X30218757Y-91743629D01*
X30376370Y-91901242D01*
X30376376Y-91901247D01*
X30553226Y-92036948D01*
X30746274Y-92148405D01*
X30952219Y-92233710D01*
X31167537Y-92291404D01*
X31388543Y-92320500D01*
X31388550Y-92320500D01*
X31611450Y-92320500D01*
X31611457Y-92320500D01*
X31832463Y-92291404D01*
X32047781Y-92233710D01*
X32253726Y-92148405D01*
X32446774Y-92036948D01*
X32623624Y-91901247D01*
X32781247Y-91743624D01*
X32916948Y-91566774D01*
X33028405Y-91373726D01*
X33113710Y-91167781D01*
X33171404Y-90952463D01*
X33200500Y-90731457D01*
X33200500Y-90508543D01*
X33171404Y-90287537D01*
X33113710Y-90072219D01*
X33028405Y-89866274D01*
X32916948Y-89673226D01*
X32781247Y-89496376D01*
X32781242Y-89496370D01*
X32623629Y-89338757D01*
X32623622Y-89338751D01*
X32446782Y-89203058D01*
X32446780Y-89203057D01*
X32446774Y-89203052D01*
X32253726Y-89091595D01*
X32253722Y-89091593D01*
X32047790Y-89006293D01*
X32047783Y-89006291D01*
X32047781Y-89006290D01*
X31832463Y-88948596D01*
X31832457Y-88948595D01*
X31832452Y-88948594D01*
X31611466Y-88919501D01*
X31611463Y-88919500D01*
X31611457Y-88919500D01*
X31388543Y-88919500D01*
X31388537Y-88919500D01*
X31388533Y-88919501D01*
X31167547Y-88948594D01*
X31167540Y-88948595D01*
X31167537Y-88948596D01*
X30952219Y-89006290D01*
X30952209Y-89006293D01*
X30746277Y-89091593D01*
X30746273Y-89091595D01*
X30553226Y-89203052D01*
X30553217Y-89203058D01*
X30376377Y-89338751D01*
X30376370Y-89338757D01*
X30218757Y-89496370D01*
X30218751Y-89496377D01*
X30083058Y-89673217D01*
X30083052Y-89673226D01*
X29971595Y-89866273D01*
X29971593Y-89866277D01*
X29886293Y-90072209D01*
X29886290Y-90072219D01*
X29828597Y-90287534D01*
X29828594Y-90287547D01*
X29799501Y-90508533D01*
X29799500Y-90508549D01*
X24000500Y-90508549D01*
X24000500Y-75268575D01*
X29800000Y-75268575D01*
X29800000Y-75491424D01*
X29829085Y-75712354D01*
X29829088Y-75712367D01*
X29886763Y-75927618D01*
X29972045Y-76133502D01*
X29972054Y-76133520D01*
X30083464Y-76326491D01*
X30083473Y-76326504D01*
X30134040Y-76392403D01*
X30134043Y-76392403D01*
X30935387Y-75591058D01*
X30940889Y-75611591D01*
X31019881Y-75748408D01*
X31131592Y-75860119D01*
X31268409Y-75939111D01*
X31288940Y-75944612D01*
X30487595Y-76745955D01*
X30487595Y-76745956D01*
X30553507Y-76796533D01*
X30746485Y-76907949D01*
X30746497Y-76907954D01*
X30952381Y-76993236D01*
X31167632Y-77050911D01*
X31167645Y-77050914D01*
X31388575Y-77080000D01*
X31611425Y-77080000D01*
X31832354Y-77050914D01*
X31832367Y-77050911D01*
X32047618Y-76993236D01*
X32253502Y-76907954D01*
X32253514Y-76907949D01*
X32446498Y-76796530D01*
X32512403Y-76745957D01*
X32512404Y-76745956D01*
X31711059Y-75944612D01*
X31731591Y-75939111D01*
X31868408Y-75860119D01*
X31980119Y-75748408D01*
X32059111Y-75611591D01*
X32064612Y-75591059D01*
X32865956Y-76392404D01*
X32865957Y-76392403D01*
X32916530Y-76326498D01*
X33027949Y-76133514D01*
X33027954Y-76133502D01*
X33113236Y-75927618D01*
X33170911Y-75712367D01*
X33170914Y-75712354D01*
X33200000Y-75491424D01*
X33200000Y-75268575D01*
X33170914Y-75047645D01*
X33170911Y-75047632D01*
X33113236Y-74832381D01*
X33027954Y-74626497D01*
X33027949Y-74626485D01*
X32916533Y-74433507D01*
X32865956Y-74367595D01*
X32865955Y-74367595D01*
X32064612Y-75168939D01*
X32059111Y-75148409D01*
X31980119Y-75011592D01*
X31868408Y-74899881D01*
X31731591Y-74820889D01*
X31711058Y-74815387D01*
X32512403Y-74014043D01*
X32512403Y-74014040D01*
X32446504Y-73963473D01*
X32446491Y-73963464D01*
X32253520Y-73852054D01*
X32253502Y-73852045D01*
X32047618Y-73766763D01*
X31832367Y-73709088D01*
X31832354Y-73709085D01*
X31611425Y-73680000D01*
X31388575Y-73680000D01*
X31167645Y-73709085D01*
X31167632Y-73709088D01*
X30952381Y-73766763D01*
X30746497Y-73852045D01*
X30746479Y-73852054D01*
X30553511Y-73963462D01*
X30487595Y-74014042D01*
X31288941Y-74815387D01*
X31268409Y-74820889D01*
X31131592Y-74899881D01*
X31019881Y-75011592D01*
X30940889Y-75148409D01*
X30935387Y-75168940D01*
X30134042Y-74367595D01*
X30083462Y-74433511D01*
X29972054Y-74626479D01*
X29972045Y-74626497D01*
X29886763Y-74832381D01*
X29829088Y-75047632D01*
X29829085Y-75047645D01*
X29800000Y-75268575D01*
X24000500Y-75268575D01*
X24000500Y-56058713D01*
X32549500Y-56058713D01*
X32549500Y-56271287D01*
X32559534Y-56334644D01*
X32581453Y-56473034D01*
X32582754Y-56481243D01*
X32604234Y-56547352D01*
X32648444Y-56683414D01*
X32744951Y-56872820D01*
X32869890Y-57044786D01*
X33020213Y-57195109D01*
X33192182Y-57320050D01*
X33200946Y-57324516D01*
X33251742Y-57372491D01*
X33268536Y-57440312D01*
X33245998Y-57506447D01*
X33200946Y-57545484D01*
X33192182Y-57549949D01*
X33020213Y-57674890D01*
X32869890Y-57825213D01*
X32744951Y-57997179D01*
X32648444Y-58186585D01*
X32582753Y-58388760D01*
X32552894Y-58577284D01*
X32549500Y-58598713D01*
X32549500Y-58811287D01*
X32555957Y-58852054D01*
X32581613Y-59014043D01*
X32582754Y-59021243D01*
X32604234Y-59087352D01*
X32648444Y-59223414D01*
X32744951Y-59412820D01*
X32869890Y-59584786D01*
X33020213Y-59735109D01*
X33192182Y-59860050D01*
X33200946Y-59864516D01*
X33251742Y-59912491D01*
X33268536Y-59980312D01*
X33245998Y-60046447D01*
X33200946Y-60085484D01*
X33192182Y-60089949D01*
X33020213Y-60214890D01*
X32869890Y-60365213D01*
X32744951Y-60537179D01*
X32648444Y-60726585D01*
X32582753Y-60928760D01*
X32552894Y-61117284D01*
X32549500Y-61138713D01*
X32549500Y-61351287D01*
X32556012Y-61392403D01*
X32581453Y-61553034D01*
X32582754Y-61561243D01*
X32642771Y-61745957D01*
X32648444Y-61763414D01*
X32744951Y-61952820D01*
X32869890Y-62124786D01*
X33020213Y-62275109D01*
X33192182Y-62400050D01*
X33200946Y-62404516D01*
X33251742Y-62452491D01*
X33268536Y-62520312D01*
X33245998Y-62586447D01*
X33200946Y-62625484D01*
X33192182Y-62629949D01*
X33020213Y-62754890D01*
X32869890Y-62905213D01*
X32744951Y-63077179D01*
X32648444Y-63266585D01*
X32582753Y-63468760D01*
X32552894Y-63657284D01*
X32549500Y-63678713D01*
X32549500Y-63891287D01*
X32582754Y-64101243D01*
X32633685Y-64257993D01*
X32648444Y-64303414D01*
X32744951Y-64492820D01*
X32869890Y-64664786D01*
X33020213Y-64815109D01*
X33192182Y-64940050D01*
X33200946Y-64944516D01*
X33251742Y-64992491D01*
X33268536Y-65060312D01*
X33245998Y-65126447D01*
X33200946Y-65165484D01*
X33192182Y-65169949D01*
X33020213Y-65294890D01*
X32869890Y-65445213D01*
X32744951Y-65617179D01*
X32648444Y-65806585D01*
X32582753Y-66008760D01*
X32567387Y-66105781D01*
X32549500Y-66218713D01*
X32549500Y-66431287D01*
X32582754Y-66641243D01*
X32604234Y-66707352D01*
X32648444Y-66843414D01*
X32744951Y-67032820D01*
X32869890Y-67204786D01*
X33020213Y-67355109D01*
X33192179Y-67480048D01*
X33192181Y-67480049D01*
X33192184Y-67480051D01*
X33381588Y-67576557D01*
X33583757Y-67642246D01*
X33793713Y-67675500D01*
X33793714Y-67675500D01*
X34006286Y-67675500D01*
X34006287Y-67675500D01*
X34216243Y-67642246D01*
X34418412Y-67576557D01*
X34607816Y-67480051D01*
X34646132Y-67452213D01*
X34779786Y-67355109D01*
X34779788Y-67355106D01*
X34779792Y-67355104D01*
X34930104Y-67204792D01*
X34930106Y-67204788D01*
X34930109Y-67204786D01*
X35055048Y-67032820D01*
X35055047Y-67032820D01*
X35055051Y-67032816D01*
X35151557Y-66843412D01*
X35217246Y-66641243D01*
X35250500Y-66431287D01*
X35250500Y-66218713D01*
X35217246Y-66008757D01*
X35151557Y-65806588D01*
X35055051Y-65617184D01*
X35055049Y-65617181D01*
X35055048Y-65617179D01*
X34930109Y-65445213D01*
X34779786Y-65294890D01*
X34607820Y-65169951D01*
X34607115Y-65169591D01*
X34599054Y-65165485D01*
X34548259Y-65117512D01*
X34531463Y-65049692D01*
X34553999Y-64983556D01*
X34599054Y-64944515D01*
X34607816Y-64940051D01*
X34646571Y-64911894D01*
X34779786Y-64815109D01*
X34779788Y-64815106D01*
X34779792Y-64815104D01*
X34930104Y-64664792D01*
X34930106Y-64664788D01*
X34930109Y-64664786D01*
X35055048Y-64492820D01*
X35055047Y-64492820D01*
X35055051Y-64492816D01*
X35151557Y-64303412D01*
X35217246Y-64101243D01*
X35250500Y-63891287D01*
X35250500Y-63678713D01*
X35217246Y-63468757D01*
X35151557Y-63266588D01*
X35055051Y-63077184D01*
X35055049Y-63077181D01*
X35055048Y-63077179D01*
X34930109Y-62905213D01*
X34779786Y-62754890D01*
X34607820Y-62629951D01*
X34607115Y-62629591D01*
X34599054Y-62625485D01*
X34548259Y-62577512D01*
X34531463Y-62509692D01*
X34553999Y-62443556D01*
X34599054Y-62404515D01*
X34607816Y-62400051D01*
X34646571Y-62371894D01*
X34779786Y-62275109D01*
X34779788Y-62275106D01*
X34779792Y-62275104D01*
X34930104Y-62124792D01*
X34930106Y-62124788D01*
X34930109Y-62124786D01*
X35054761Y-61953215D01*
X35055051Y-61952816D01*
X35151557Y-61763412D01*
X35217246Y-61561243D01*
X35250500Y-61351287D01*
X35250500Y-61138713D01*
X35217246Y-60928757D01*
X35151557Y-60726588D01*
X35055051Y-60537184D01*
X35055049Y-60537181D01*
X35055048Y-60537179D01*
X34930109Y-60365213D01*
X34779786Y-60214890D01*
X34607820Y-60089951D01*
X34607115Y-60089591D01*
X34599054Y-60085485D01*
X34548259Y-60037512D01*
X34531463Y-59969692D01*
X34553999Y-59903556D01*
X34599054Y-59864515D01*
X34607816Y-59860051D01*
X34717998Y-59780000D01*
X34779786Y-59735109D01*
X34779788Y-59735106D01*
X34779792Y-59735104D01*
X34930104Y-59584792D01*
X34930106Y-59584788D01*
X34930109Y-59584786D01*
X35055048Y-59412820D01*
X35055047Y-59412820D01*
X35055051Y-59412816D01*
X35151557Y-59223412D01*
X35217246Y-59021243D01*
X35250500Y-58811287D01*
X35250500Y-58598713D01*
X35217246Y-58388757D01*
X35151557Y-58186588D01*
X35055051Y-57997184D01*
X35055049Y-57997181D01*
X35055048Y-57997179D01*
X34930109Y-57825213D01*
X34779786Y-57674890D01*
X34607820Y-57549951D01*
X34607115Y-57549591D01*
X34599054Y-57545485D01*
X34548259Y-57497512D01*
X34531463Y-57429692D01*
X34553999Y-57363556D01*
X34599054Y-57324515D01*
X34607816Y-57320051D01*
X34646132Y-57292213D01*
X34779786Y-57195109D01*
X34779788Y-57195106D01*
X34779792Y-57195104D01*
X34930104Y-57044792D01*
X34930106Y-57044788D01*
X34930109Y-57044786D01*
X35055048Y-56872820D01*
X35055047Y-56872820D01*
X35055051Y-56872816D01*
X35151557Y-56683412D01*
X35217246Y-56481243D01*
X35250500Y-56271287D01*
X35250500Y-56058713D01*
X35217246Y-55848757D01*
X35151557Y-55646588D01*
X35055051Y-55457184D01*
X35055049Y-55457181D01*
X35055048Y-55457179D01*
X34930109Y-55285213D01*
X34816181Y-55171285D01*
X34782696Y-55109962D01*
X34787680Y-55040270D01*
X34829552Y-54984337D01*
X34860529Y-54967422D01*
X34992086Y-54918354D01*
X34992093Y-54918350D01*
X35107187Y-54832190D01*
X35107190Y-54832187D01*
X35193350Y-54717093D01*
X35193354Y-54717086D01*
X35243596Y-54582379D01*
X35243598Y-54582372D01*
X35249999Y-54522844D01*
X35250000Y-54522827D01*
X35250000Y-53875000D01*
X34333012Y-53875000D01*
X34365925Y-53817993D01*
X34400000Y-53690826D01*
X34400000Y-53559174D01*
X34365925Y-53432007D01*
X34333012Y-53375000D01*
X35250000Y-53375000D01*
X35250000Y-52727172D01*
X35249999Y-52727155D01*
X35243598Y-52667627D01*
X35243596Y-52667620D01*
X35193354Y-52532913D01*
X35193350Y-52532906D01*
X35107190Y-52417812D01*
X35107187Y-52417809D01*
X34992093Y-52331649D01*
X34992086Y-52331645D01*
X34857379Y-52281403D01*
X34857372Y-52281401D01*
X34797844Y-52275000D01*
X34150000Y-52275000D01*
X34150000Y-53191988D01*
X34092993Y-53159075D01*
X33965826Y-53125000D01*
X33834174Y-53125000D01*
X33707007Y-53159075D01*
X33650000Y-53191988D01*
X33650000Y-52275000D01*
X33002155Y-52275000D01*
X32942627Y-52281401D01*
X32942620Y-52281403D01*
X32807913Y-52331645D01*
X32807906Y-52331649D01*
X32692812Y-52417809D01*
X32692809Y-52417812D01*
X32606649Y-52532906D01*
X32606645Y-52532913D01*
X32556403Y-52667620D01*
X32556401Y-52667627D01*
X32550000Y-52727155D01*
X32550000Y-53375000D01*
X33466988Y-53375000D01*
X33434075Y-53432007D01*
X33400000Y-53559174D01*
X33400000Y-53690826D01*
X33434075Y-53817993D01*
X33466988Y-53875000D01*
X32550000Y-53875000D01*
X32550000Y-54522844D01*
X32556401Y-54582372D01*
X32556403Y-54582379D01*
X32606645Y-54717086D01*
X32606649Y-54717093D01*
X32692809Y-54832187D01*
X32692812Y-54832190D01*
X32807906Y-54918350D01*
X32807913Y-54918354D01*
X32939470Y-54967422D01*
X32995404Y-55009293D01*
X33019821Y-55074758D01*
X33004969Y-55143031D01*
X32983819Y-55171285D01*
X32869889Y-55285215D01*
X32744951Y-55457179D01*
X32648444Y-55646585D01*
X32582753Y-55848760D01*
X32567387Y-55945781D01*
X32549500Y-56058713D01*
X24000500Y-56058713D01*
X24000500Y-39582648D01*
X93199500Y-39582648D01*
X93199500Y-39787351D01*
X93231522Y-39989534D01*
X93294781Y-40184223D01*
X93387715Y-40366613D01*
X93508028Y-40532213D01*
X93652786Y-40676971D01*
X93807749Y-40789556D01*
X93818390Y-40797287D01*
X93909840Y-40843883D01*
X93911080Y-40844515D01*
X93961876Y-40892490D01*
X93978671Y-40960311D01*
X93956134Y-41026446D01*
X93911080Y-41065485D01*
X93818386Y-41112715D01*
X93652786Y-41233028D01*
X93508028Y-41377786D01*
X93387715Y-41543386D01*
X93294781Y-41725776D01*
X93231522Y-41920465D01*
X93199500Y-42122648D01*
X93199500Y-42327351D01*
X93231522Y-42529534D01*
X93294781Y-42724223D01*
X93387715Y-42906613D01*
X93508028Y-43072213D01*
X93652786Y-43216971D01*
X93807749Y-43329556D01*
X93818390Y-43337287D01*
X93909840Y-43383883D01*
X93911080Y-43384515D01*
X93961876Y-43432490D01*
X93978671Y-43500311D01*
X93956134Y-43566446D01*
X93911080Y-43605485D01*
X93818386Y-43652715D01*
X93652786Y-43773028D01*
X93508028Y-43917786D01*
X93387715Y-44083386D01*
X93294781Y-44265776D01*
X93231522Y-44460465D01*
X93199500Y-44662648D01*
X93199500Y-44867351D01*
X93231522Y-45069534D01*
X93294781Y-45264223D01*
X93387715Y-45446613D01*
X93508028Y-45612213D01*
X93652786Y-45756971D01*
X93807749Y-45869556D01*
X93818390Y-45877287D01*
X93890424Y-45913990D01*
X93911629Y-45924795D01*
X93962425Y-45972770D01*
X93979220Y-46040591D01*
X93956682Y-46106726D01*
X93911629Y-46145765D01*
X93818650Y-46193140D01*
X93653105Y-46313417D01*
X93653104Y-46313417D01*
X93508417Y-46458104D01*
X93508417Y-46458105D01*
X93388140Y-46623650D01*
X93295244Y-46805970D01*
X93232009Y-47000586D01*
X93223391Y-47055000D01*
X94066988Y-47055000D01*
X94034075Y-47112007D01*
X94000000Y-47239174D01*
X94000000Y-47370826D01*
X94034075Y-47497993D01*
X94066988Y-47555000D01*
X93223391Y-47555000D01*
X93232009Y-47609413D01*
X93295244Y-47804029D01*
X93388140Y-47986349D01*
X93508417Y-48151894D01*
X93508417Y-48151895D01*
X93653104Y-48296582D01*
X93818652Y-48416861D01*
X93911628Y-48464234D01*
X93962425Y-48512208D01*
X93979220Y-48580029D01*
X93956683Y-48646164D01*
X93911630Y-48685203D01*
X93818388Y-48732713D01*
X93652786Y-48853028D01*
X93508028Y-48997786D01*
X93387715Y-49163386D01*
X93294781Y-49345776D01*
X93231522Y-49540465D01*
X93199500Y-49742648D01*
X93199500Y-49947351D01*
X93231522Y-50149534D01*
X93294781Y-50344223D01*
X93358691Y-50469653D01*
X93383214Y-50517781D01*
X93387715Y-50526613D01*
X93508028Y-50692213D01*
X93652786Y-50836971D01*
X93807749Y-50949556D01*
X93818390Y-50957287D01*
X93909840Y-51003883D01*
X93911080Y-51004515D01*
X93961876Y-51052490D01*
X93978671Y-51120311D01*
X93956134Y-51186446D01*
X93911080Y-51225485D01*
X93818386Y-51272715D01*
X93652786Y-51393028D01*
X93508028Y-51537786D01*
X93387715Y-51703386D01*
X93294781Y-51885776D01*
X93231522Y-52080465D01*
X93199500Y-52282648D01*
X93199500Y-52487351D01*
X93231522Y-52689531D01*
X93294781Y-52884223D01*
X93358691Y-53009653D01*
X93383214Y-53057781D01*
X93387715Y-53066613D01*
X93508028Y-53232213D01*
X93652786Y-53376971D01*
X93807749Y-53489556D01*
X93818390Y-53497287D01*
X93909840Y-53543883D01*
X93911080Y-53544515D01*
X93961876Y-53592490D01*
X93978671Y-53660311D01*
X93956134Y-53726446D01*
X93911080Y-53765485D01*
X93818386Y-53812715D01*
X93652786Y-53933028D01*
X93508028Y-54077786D01*
X93387715Y-54243386D01*
X93294781Y-54425776D01*
X93231522Y-54620465D01*
X93199500Y-54822648D01*
X93199500Y-55027351D01*
X93231522Y-55229531D01*
X93294781Y-55424223D01*
X93358691Y-55549653D01*
X93383214Y-55597781D01*
X93387715Y-55606613D01*
X93508028Y-55772213D01*
X93652786Y-55916971D01*
X93807749Y-56029556D01*
X93818390Y-56037287D01*
X93909840Y-56083883D01*
X93911080Y-56084515D01*
X93961876Y-56132490D01*
X93978671Y-56200311D01*
X93956134Y-56266446D01*
X93911080Y-56305485D01*
X93818386Y-56352715D01*
X93652786Y-56473028D01*
X93508028Y-56617786D01*
X93387715Y-56783386D01*
X93294781Y-56965776D01*
X93231522Y-57160465D01*
X93199500Y-57362648D01*
X93199500Y-57567351D01*
X93231522Y-57769531D01*
X93294781Y-57964223D01*
X93358691Y-58089653D01*
X93383214Y-58137781D01*
X93387715Y-58146613D01*
X93508028Y-58312213D01*
X93652786Y-58456971D01*
X93807749Y-58569556D01*
X93818390Y-58577287D01*
X93909840Y-58623883D01*
X93911080Y-58624515D01*
X93961876Y-58672490D01*
X93978671Y-58740311D01*
X93956134Y-58806446D01*
X93911080Y-58845485D01*
X93818386Y-58892715D01*
X93652786Y-59013028D01*
X93508028Y-59157786D01*
X93387715Y-59323386D01*
X93294781Y-59505776D01*
X93231522Y-59700465D01*
X93199500Y-59902648D01*
X93199500Y-60107351D01*
X93231522Y-60309534D01*
X93294781Y-60504223D01*
X93349489Y-60611591D01*
X93383379Y-60678105D01*
X93387715Y-60686613D01*
X93508028Y-60852213D01*
X93652786Y-60996971D01*
X93738267Y-61059075D01*
X93818390Y-61117287D01*
X93909840Y-61163883D01*
X93911080Y-61164515D01*
X93961876Y-61212490D01*
X93978671Y-61280311D01*
X93956134Y-61346446D01*
X93911080Y-61385485D01*
X93818386Y-61432715D01*
X93652786Y-61553028D01*
X93508028Y-61697786D01*
X93387715Y-61863386D01*
X93294781Y-62045776D01*
X93231522Y-62240465D01*
X93199500Y-62442648D01*
X93199500Y-62647351D01*
X93231522Y-62849534D01*
X93294781Y-63044223D01*
X93358691Y-63169653D01*
X93383379Y-63218105D01*
X93387715Y-63226613D01*
X93508028Y-63392213D01*
X93652786Y-63536971D01*
X93738267Y-63599075D01*
X93818390Y-63657287D01*
X93934607Y-63716503D01*
X94000776Y-63750218D01*
X94000778Y-63750218D01*
X94000781Y-63750220D01*
X94105137Y-63784127D01*
X94195465Y-63813477D01*
X94296557Y-63829488D01*
X94397648Y-63845500D01*
X94397649Y-63845500D01*
X94602351Y-63845500D01*
X94602352Y-63845500D01*
X94804534Y-63813477D01*
X94999219Y-63750220D01*
X95181610Y-63657287D01*
X95307298Y-63565970D01*
X95347213Y-63536971D01*
X95347215Y-63536968D01*
X95347219Y-63536966D01*
X95491966Y-63392219D01*
X95491968Y-63392215D01*
X95491971Y-63392213D01*
X95544732Y-63319590D01*
X95612287Y-63226610D01*
X95705220Y-63044219D01*
X95768477Y-62849534D01*
X95800500Y-62647352D01*
X95800500Y-62442648D01*
X95789294Y-62371895D01*
X95768477Y-62240465D01*
X95716338Y-62080000D01*
X95705220Y-62045781D01*
X95705218Y-62045778D01*
X95705218Y-62045776D01*
X95612287Y-61863390D01*
X95545081Y-61770888D01*
X95545080Y-61770885D01*
X95491971Y-61697787D01*
X95491967Y-61697782D01*
X95347213Y-61553028D01*
X95181614Y-61432715D01*
X95175006Y-61429348D01*
X95088917Y-61385483D01*
X95038123Y-61337511D01*
X95021328Y-61269690D01*
X95043865Y-61203555D01*
X95088917Y-61164516D01*
X95181610Y-61117287D01*
X95261733Y-61059075D01*
X95347213Y-60996971D01*
X95347215Y-60996968D01*
X95347219Y-60996966D01*
X95491966Y-60852219D01*
X95491968Y-60852215D01*
X95491971Y-60852213D01*
X95578181Y-60733553D01*
X95612287Y-60686610D01*
X95705220Y-60504219D01*
X95768477Y-60309534D01*
X95774965Y-60268575D01*
X100800000Y-60268575D01*
X100800000Y-60491424D01*
X100829085Y-60712354D01*
X100829088Y-60712367D01*
X100886763Y-60927618D01*
X100972045Y-61133502D01*
X100972054Y-61133520D01*
X101083464Y-61326491D01*
X101083473Y-61326504D01*
X101134040Y-61392403D01*
X101134043Y-61392403D01*
X101935387Y-60591059D01*
X101940889Y-60611591D01*
X102019881Y-60748408D01*
X102131592Y-60860119D01*
X102268409Y-60939111D01*
X102288940Y-60944612D01*
X101487595Y-61745955D01*
X101487595Y-61745956D01*
X101553507Y-61796533D01*
X101746485Y-61907949D01*
X101746497Y-61907954D01*
X101952381Y-61993236D01*
X102167632Y-62050911D01*
X102167645Y-62050914D01*
X102388575Y-62080000D01*
X102611425Y-62080000D01*
X102832354Y-62050914D01*
X102832367Y-62050911D01*
X103047618Y-61993236D01*
X103253502Y-61907954D01*
X103253514Y-61907949D01*
X103446498Y-61796530D01*
X103512403Y-61745957D01*
X103512404Y-61745956D01*
X102711059Y-60944612D01*
X102731591Y-60939111D01*
X102868408Y-60860119D01*
X102980119Y-60748408D01*
X103059111Y-60611591D01*
X103064612Y-60591060D01*
X103865956Y-61392404D01*
X103865957Y-61392403D01*
X103916530Y-61326498D01*
X104027949Y-61133514D01*
X104027954Y-61133502D01*
X104113236Y-60927618D01*
X104170911Y-60712367D01*
X104170914Y-60712354D01*
X104200000Y-60491424D01*
X104200000Y-60268575D01*
X104170914Y-60047645D01*
X104170911Y-60047632D01*
X104113236Y-59832381D01*
X104027954Y-59626497D01*
X104027949Y-59626485D01*
X103916533Y-59433507D01*
X103865956Y-59367595D01*
X103865955Y-59367595D01*
X103064612Y-60168939D01*
X103059111Y-60148409D01*
X102980119Y-60011592D01*
X102868408Y-59899881D01*
X102731591Y-59820889D01*
X102711058Y-59815387D01*
X103512403Y-59014043D01*
X103512403Y-59014040D01*
X103446504Y-58963473D01*
X103446491Y-58963464D01*
X103253520Y-58852054D01*
X103253502Y-58852045D01*
X103047618Y-58766763D01*
X102832367Y-58709088D01*
X102832354Y-58709085D01*
X102611425Y-58680000D01*
X102388575Y-58680000D01*
X102167645Y-58709085D01*
X102167632Y-58709088D01*
X101952381Y-58766763D01*
X101746497Y-58852045D01*
X101746479Y-58852054D01*
X101553511Y-58963462D01*
X101487595Y-59014042D01*
X102288941Y-59815387D01*
X102268409Y-59820889D01*
X102131592Y-59899881D01*
X102019881Y-60011592D01*
X101940889Y-60148409D01*
X101935387Y-60168940D01*
X101134042Y-59367595D01*
X101083462Y-59433511D01*
X100972054Y-59626479D01*
X100972045Y-59626497D01*
X100886763Y-59832381D01*
X100829088Y-60047632D01*
X100829085Y-60047645D01*
X100800000Y-60268575D01*
X95774965Y-60268575D01*
X95777356Y-60253477D01*
X95778680Y-60245118D01*
X95778680Y-60245117D01*
X95793997Y-60148409D01*
X95800500Y-60107352D01*
X95800500Y-59902648D01*
X95789344Y-59832213D01*
X95768477Y-59700465D01*
X95705218Y-59505776D01*
X95671503Y-59439607D01*
X95612287Y-59323390D01*
X95604556Y-59312749D01*
X95491971Y-59157786D01*
X95347213Y-59013028D01*
X95181614Y-58892715D01*
X95101812Y-58852054D01*
X95088917Y-58845483D01*
X95038123Y-58797511D01*
X95021328Y-58729690D01*
X95043865Y-58663555D01*
X95088917Y-58624516D01*
X95181610Y-58577287D01*
X95202770Y-58561913D01*
X95347213Y-58456971D01*
X95347215Y-58456968D01*
X95347219Y-58456966D01*
X95491966Y-58312219D01*
X95491968Y-58312215D01*
X95491971Y-58312213D01*
X95544732Y-58239590D01*
X95612287Y-58146610D01*
X95705220Y-57964219D01*
X95766277Y-57776303D01*
X95768478Y-57769531D01*
X95800500Y-57567351D01*
X95800500Y-57362648D01*
X95768477Y-57160465D01*
X95705218Y-56965776D01*
X95657852Y-56872816D01*
X95612287Y-56783390D01*
X95598089Y-56763848D01*
X95491971Y-56617786D01*
X95347213Y-56473028D01*
X95181614Y-56352715D01*
X95161856Y-56342648D01*
X95088917Y-56305483D01*
X95038123Y-56257511D01*
X95021328Y-56189690D01*
X95043865Y-56123555D01*
X95088917Y-56084516D01*
X95181610Y-56037287D01*
X95202770Y-56021913D01*
X95347213Y-55916971D01*
X95347215Y-55916968D01*
X95347219Y-55916966D01*
X95491966Y-55772219D01*
X95491968Y-55772215D01*
X95491971Y-55772213D01*
X95544732Y-55699590D01*
X95612287Y-55606610D01*
X95705220Y-55424219D01*
X95768477Y-55229534D01*
X95768476Y-55229534D01*
X95768478Y-55229531D01*
X95800500Y-55027351D01*
X95800500Y-54822648D01*
X95768477Y-54620465D01*
X95705218Y-54425776D01*
X95671503Y-54359607D01*
X95612287Y-54243390D01*
X95604556Y-54232749D01*
X95491971Y-54077786D01*
X95347213Y-53933028D01*
X95181614Y-53812715D01*
X95161856Y-53802648D01*
X95088917Y-53765483D01*
X95038123Y-53717511D01*
X95021328Y-53649690D01*
X95043865Y-53583555D01*
X95088917Y-53544516D01*
X95181610Y-53497287D01*
X95271461Y-53432007D01*
X95347213Y-53376971D01*
X95347215Y-53376968D01*
X95347219Y-53376966D01*
X95491966Y-53232219D01*
X95491968Y-53232215D01*
X95491971Y-53232213D01*
X95545108Y-53159075D01*
X95612287Y-53066610D01*
X95705220Y-52884219D01*
X95768477Y-52689534D01*
X95768476Y-52689534D01*
X95768478Y-52689531D01*
X95800500Y-52487351D01*
X95800500Y-52282648D01*
X95768477Y-52080465D01*
X95705218Y-51885776D01*
X95671503Y-51819607D01*
X95612287Y-51703390D01*
X95604556Y-51692749D01*
X95491971Y-51537786D01*
X95347213Y-51393028D01*
X95181614Y-51272715D01*
X95161856Y-51262648D01*
X95088917Y-51225483D01*
X95038123Y-51177511D01*
X95021328Y-51109690D01*
X95043865Y-51043555D01*
X95088917Y-51004516D01*
X95181610Y-50957287D01*
X95202770Y-50941913D01*
X95347213Y-50836971D01*
X95347215Y-50836968D01*
X95347219Y-50836966D01*
X95491966Y-50692219D01*
X95491968Y-50692215D01*
X95491971Y-50692213D01*
X95544732Y-50619590D01*
X95612287Y-50526610D01*
X95705220Y-50344219D01*
X95768477Y-50149534D01*
X95800500Y-49947352D01*
X95800500Y-49742648D01*
X95768477Y-49540466D01*
X95705220Y-49345781D01*
X95705218Y-49345778D01*
X95705218Y-49345776D01*
X95671503Y-49279607D01*
X95612287Y-49163390D01*
X95604556Y-49152749D01*
X95491971Y-48997786D01*
X95347213Y-48853028D01*
X95181611Y-48732713D01*
X95088369Y-48685203D01*
X95037574Y-48637229D01*
X95020779Y-48569407D01*
X95043317Y-48503273D01*
X95088371Y-48464234D01*
X95181347Y-48416861D01*
X95346894Y-48296582D01*
X95346895Y-48296582D01*
X95491582Y-48151895D01*
X95491582Y-48151894D01*
X95611859Y-47986349D01*
X95704755Y-47804029D01*
X95767990Y-47609413D01*
X95776609Y-47555000D01*
X94933012Y-47555000D01*
X94965925Y-47497993D01*
X95000000Y-47370826D01*
X95000000Y-47239174D01*
X94965925Y-47112007D01*
X94933012Y-47055000D01*
X95776609Y-47055000D01*
X95767990Y-47000586D01*
X95704755Y-46805970D01*
X95611859Y-46623650D01*
X95491582Y-46458105D01*
X95491582Y-46458104D01*
X95346895Y-46313417D01*
X95181349Y-46193140D01*
X95088370Y-46145765D01*
X95037574Y-46097790D01*
X95020779Y-46029969D01*
X95043316Y-45963835D01*
X95088370Y-45924795D01*
X95181610Y-45877287D01*
X95202770Y-45861913D01*
X95347213Y-45756971D01*
X95347215Y-45756968D01*
X95347219Y-45756966D01*
X95491966Y-45612219D01*
X95491968Y-45612215D01*
X95491971Y-45612213D01*
X95544732Y-45539590D01*
X95612287Y-45446610D01*
X95705220Y-45264219D01*
X95768477Y-45069534D01*
X95800500Y-44867352D01*
X95800500Y-44662648D01*
X95768477Y-44460466D01*
X95705220Y-44265781D01*
X95705218Y-44265778D01*
X95705218Y-44265776D01*
X95671503Y-44199607D01*
X95612287Y-44083390D01*
X95604556Y-44072749D01*
X95491971Y-43917786D01*
X95347213Y-43773028D01*
X95181614Y-43652715D01*
X95175006Y-43649348D01*
X95088917Y-43605483D01*
X95038123Y-43557511D01*
X95021328Y-43489690D01*
X95043865Y-43423555D01*
X95088917Y-43384516D01*
X95181610Y-43337287D01*
X95202770Y-43321913D01*
X95347213Y-43216971D01*
X95347215Y-43216968D01*
X95347219Y-43216966D01*
X95491966Y-43072219D01*
X95491968Y-43072215D01*
X95491971Y-43072213D01*
X95544732Y-42999590D01*
X95612287Y-42906610D01*
X95705220Y-42724219D01*
X95768477Y-42529534D01*
X95800500Y-42327352D01*
X95800500Y-42122648D01*
X95768477Y-41920466D01*
X95759811Y-41893796D01*
X95705218Y-41725776D01*
X95671503Y-41659607D01*
X95612287Y-41543390D01*
X95604556Y-41532749D01*
X95491971Y-41377786D01*
X95347213Y-41233028D01*
X95181614Y-41112715D01*
X95175006Y-41109348D01*
X95088917Y-41065483D01*
X95038123Y-41017511D01*
X95021328Y-40949690D01*
X95043865Y-40883555D01*
X95088917Y-40844516D01*
X95181610Y-40797287D01*
X95202770Y-40781913D01*
X95347213Y-40676971D01*
X95347215Y-40676968D01*
X95347219Y-40676966D01*
X95491966Y-40532219D01*
X95491968Y-40532215D01*
X95491971Y-40532213D01*
X95544732Y-40459590D01*
X95612287Y-40366610D01*
X95705220Y-40184219D01*
X95768477Y-39989534D01*
X95800500Y-39787352D01*
X95800500Y-39582648D01*
X95770376Y-39392454D01*
X95768477Y-39380465D01*
X95725924Y-39249501D01*
X95705220Y-39185781D01*
X95705218Y-39185778D01*
X95705218Y-39185776D01*
X95652127Y-39081580D01*
X95612287Y-39003390D01*
X95566081Y-38939792D01*
X95491971Y-38837786D01*
X95347213Y-38693028D01*
X95181613Y-38572715D01*
X95181612Y-38572714D01*
X95181610Y-38572713D01*
X95124653Y-38543691D01*
X94999223Y-38479781D01*
X94804534Y-38416522D01*
X94629995Y-38388878D01*
X94602352Y-38384500D01*
X94397648Y-38384500D01*
X94373329Y-38388351D01*
X94195465Y-38416522D01*
X94000776Y-38479781D01*
X93818386Y-38572715D01*
X93652786Y-38693028D01*
X93508028Y-38837786D01*
X93387715Y-39003386D01*
X93294781Y-39185776D01*
X93231522Y-39380465D01*
X93199500Y-39582648D01*
X24000500Y-39582648D01*
X24000500Y-32873713D01*
X102749500Y-32873713D01*
X102749500Y-33086286D01*
X102782753Y-33296239D01*
X102848444Y-33498414D01*
X102944951Y-33687820D01*
X103069890Y-33859786D01*
X103220213Y-34010109D01*
X103392182Y-34135050D01*
X103400946Y-34139516D01*
X103451742Y-34187491D01*
X103468536Y-34255312D01*
X103445998Y-34321447D01*
X103400946Y-34360484D01*
X103392182Y-34364949D01*
X103220213Y-34489890D01*
X103069890Y-34640213D01*
X102944951Y-34812179D01*
X102848444Y-35001585D01*
X102782753Y-35203760D01*
X102749500Y-35413713D01*
X102749500Y-35626286D01*
X102782753Y-35836239D01*
X102848444Y-36038414D01*
X102944951Y-36227820D01*
X103069890Y-36399786D01*
X103220213Y-36550109D01*
X103392182Y-36675050D01*
X103400946Y-36679516D01*
X103451742Y-36727491D01*
X103468536Y-36795312D01*
X103445998Y-36861447D01*
X103400946Y-36900484D01*
X103392182Y-36904949D01*
X103220213Y-37029890D01*
X103069890Y-37180213D01*
X102944951Y-37352179D01*
X102848444Y-37541585D01*
X102782753Y-37743760D01*
X102749500Y-37953713D01*
X102749500Y-38166287D01*
X102782754Y-38376243D01*
X102846591Y-38572713D01*
X102848444Y-38578414D01*
X102944951Y-38767820D01*
X103069890Y-38939786D01*
X103183430Y-39053326D01*
X103216915Y-39114649D01*
X103211931Y-39184341D01*
X103170059Y-39240274D01*
X103139083Y-39257189D01*
X103007669Y-39306203D01*
X103007664Y-39306206D01*
X102892455Y-39392452D01*
X102892452Y-39392455D01*
X102806206Y-39507664D01*
X102806202Y-39507671D01*
X102755908Y-39642517D01*
X102749501Y-39702116D01*
X102749501Y-39702123D01*
X102749500Y-39702135D01*
X102749500Y-41497870D01*
X102749501Y-41497876D01*
X102755908Y-41557483D01*
X102806202Y-41692328D01*
X102806206Y-41692335D01*
X102892452Y-41807544D01*
X102892455Y-41807547D01*
X103007664Y-41893793D01*
X103007671Y-41893797D01*
X103142517Y-41944091D01*
X103142516Y-41944091D01*
X103149444Y-41944835D01*
X103202127Y-41950500D01*
X104997872Y-41950499D01*
X105057483Y-41944091D01*
X105192331Y-41893796D01*
X105307546Y-41807546D01*
X105393796Y-41692331D01*
X105444091Y-41557483D01*
X105450500Y-41497873D01*
X105450499Y-39702128D01*
X105444091Y-39642517D01*
X105421761Y-39582648D01*
X105393797Y-39507671D01*
X105393793Y-39507664D01*
X105307547Y-39392455D01*
X105307544Y-39392452D01*
X105192335Y-39306206D01*
X105192328Y-39306202D01*
X105060917Y-39257189D01*
X105004983Y-39215318D01*
X104980566Y-39149853D01*
X104995418Y-39081580D01*
X105016563Y-39053332D01*
X105130104Y-38939792D01*
X105255051Y-38767816D01*
X105351557Y-38578412D01*
X105417246Y-38376243D01*
X105450500Y-38166287D01*
X105450500Y-37953713D01*
X105417246Y-37743757D01*
X105351557Y-37541588D01*
X105255051Y-37352184D01*
X105255049Y-37352181D01*
X105255048Y-37352179D01*
X105130109Y-37180213D01*
X104979786Y-37029890D01*
X104807820Y-36904951D01*
X104807115Y-36904591D01*
X104799054Y-36900485D01*
X104748259Y-36852512D01*
X104731463Y-36784692D01*
X104753999Y-36718556D01*
X104799054Y-36679515D01*
X104807816Y-36675051D01*
X104829789Y-36659086D01*
X104979786Y-36550109D01*
X104979788Y-36550106D01*
X104979792Y-36550104D01*
X105130104Y-36399792D01*
X105130106Y-36399788D01*
X105130109Y-36399786D01*
X105255048Y-36227820D01*
X105255047Y-36227820D01*
X105255051Y-36227816D01*
X105351557Y-36038412D01*
X105417246Y-35836243D01*
X105450500Y-35626287D01*
X105450500Y-35413713D01*
X105417246Y-35203757D01*
X105351557Y-35001588D01*
X105255051Y-34812184D01*
X105255049Y-34812181D01*
X105255048Y-34812179D01*
X105130109Y-34640213D01*
X104979786Y-34489890D01*
X104807820Y-34364951D01*
X104807115Y-34364591D01*
X104799054Y-34360485D01*
X104748259Y-34312512D01*
X104731463Y-34244692D01*
X104753999Y-34178556D01*
X104799054Y-34139515D01*
X104807816Y-34135051D01*
X104829789Y-34119086D01*
X104979786Y-34010109D01*
X104979788Y-34010106D01*
X104979792Y-34010104D01*
X105130104Y-33859792D01*
X105130106Y-33859788D01*
X105130109Y-33859786D01*
X105255048Y-33687820D01*
X105255047Y-33687820D01*
X105255051Y-33687816D01*
X105351557Y-33498412D01*
X105417246Y-33296243D01*
X105450500Y-33086287D01*
X105450500Y-32873713D01*
X105417246Y-32663757D01*
X105351557Y-32461588D01*
X105255051Y-32272184D01*
X105255049Y-32272181D01*
X105255048Y-32272179D01*
X105130109Y-32100213D01*
X104979786Y-31949890D01*
X104807817Y-31824949D01*
X104798504Y-31820204D01*
X104747707Y-31772230D01*
X104730912Y-31704409D01*
X104753449Y-31638274D01*
X104798507Y-31599232D01*
X104807555Y-31594622D01*
X104861716Y-31555270D01*
X104861717Y-31555270D01*
X104229408Y-30922962D01*
X104292993Y-30905925D01*
X104407007Y-30840099D01*
X104500099Y-30747007D01*
X104565925Y-30632993D01*
X104582962Y-30569408D01*
X105215270Y-31201717D01*
X105215270Y-31201716D01*
X105254622Y-31147554D01*
X105351095Y-30958217D01*
X105416757Y-30756130D01*
X105416757Y-30756127D01*
X105450000Y-30546246D01*
X105450000Y-30333753D01*
X105416757Y-30123872D01*
X105416757Y-30123869D01*
X105351095Y-29921782D01*
X105254624Y-29732449D01*
X105215270Y-29678282D01*
X105215269Y-29678282D01*
X104582962Y-30310590D01*
X104565925Y-30247007D01*
X104500099Y-30132993D01*
X104407007Y-30039901D01*
X104292993Y-29974075D01*
X104229409Y-29957037D01*
X104861716Y-29324728D01*
X104807550Y-29285375D01*
X104618217Y-29188904D01*
X104416129Y-29123242D01*
X104206246Y-29090000D01*
X103993754Y-29090000D01*
X103783872Y-29123242D01*
X103783869Y-29123242D01*
X103581782Y-29188904D01*
X103392439Y-29285380D01*
X103338282Y-29324727D01*
X103338282Y-29324728D01*
X103970591Y-29957037D01*
X103907007Y-29974075D01*
X103792993Y-30039901D01*
X103699901Y-30132993D01*
X103634075Y-30247007D01*
X103617037Y-30310591D01*
X102984728Y-29678282D01*
X102984727Y-29678282D01*
X102945380Y-29732439D01*
X102848904Y-29921782D01*
X102783242Y-30123869D01*
X102783242Y-30123872D01*
X102750000Y-30333753D01*
X102750000Y-30546246D01*
X102783242Y-30756127D01*
X102783242Y-30756130D01*
X102848904Y-30958217D01*
X102945375Y-31147550D01*
X102984728Y-31201716D01*
X103617037Y-30569408D01*
X103634075Y-30632993D01*
X103699901Y-30747007D01*
X103792993Y-30840099D01*
X103907007Y-30905925D01*
X103970590Y-30922962D01*
X103338282Y-31555269D01*
X103338282Y-31555270D01*
X103392452Y-31594626D01*
X103392451Y-31594626D01*
X103401495Y-31599234D01*
X103452292Y-31647208D01*
X103469087Y-31715029D01*
X103446550Y-31781164D01*
X103401499Y-31820202D01*
X103392182Y-31824949D01*
X103220213Y-31949890D01*
X103069890Y-32100213D01*
X102944951Y-32272179D01*
X102848444Y-32461585D01*
X102782753Y-32663760D01*
X102749500Y-32873713D01*
X24000500Y-32873713D01*
X24000500Y-26624500D01*
X24020185Y-26557461D01*
X24072989Y-26511706D01*
X24124500Y-26500500D01*
X113875500Y-26500500D01*
X113942539Y-26520185D01*
G37*
%TD.AperFunction*%
%TD*%
M02*
