%TF.GenerationSoftware,KiCad,Pcbnew,10.0.4*%
%TF.CreationDate,2026-07-01T17:18:18+12:00*%
%TF.ProjectId,scast_goad,73636173-745f-4676-9f61-642e6b696361,rev?*%
%TF.SameCoordinates,Original*%
%TF.FileFunction,Legend,Bot*%
%TF.FilePolarity,Positive*%
%FSLAX46Y46*%
G04 Gerber Fmt 4.6, Leading zero omitted, Abs format (unit mm)*
G04 Created by KiCad (PCBNEW 10.0.4) date 2026-07-01 17:18:18*
%MOMM*%
%LPD*%
G01*
G04 APERTURE LIST*
%ADD10C,0.150000*%
%ADD11C,0.120000*%
G04 APERTURE END LIST*
D10*
X42599104Y-49380714D02*
X42599104Y-49856904D01*
X42884819Y-49285476D02*
X41884819Y-49618809D01*
X41884819Y-49618809D02*
X42884819Y-49952142D01*
X42884819Y-50809285D02*
X42884819Y-50237857D01*
X42884819Y-50523571D02*
X41884819Y-50523571D01*
X41884819Y-50523571D02*
X42027676Y-50428333D01*
X42027676Y-50428333D02*
X42122914Y-50333095D01*
X42122914Y-50333095D02*
X42170533Y-50237857D01*
X35324819Y-82833333D02*
X34848628Y-82500000D01*
X35324819Y-82261905D02*
X34324819Y-82261905D01*
X34324819Y-82261905D02*
X34324819Y-82642857D01*
X34324819Y-82642857D02*
X34372438Y-82738095D01*
X34372438Y-82738095D02*
X34420057Y-82785714D01*
X34420057Y-82785714D02*
X34515295Y-82833333D01*
X34515295Y-82833333D02*
X34658152Y-82833333D01*
X34658152Y-82833333D02*
X34753390Y-82785714D01*
X34753390Y-82785714D02*
X34801009Y-82738095D01*
X34801009Y-82738095D02*
X34848628Y-82642857D01*
X34848628Y-82642857D02*
X34848628Y-82261905D01*
X34324819Y-83690476D02*
X34324819Y-83500000D01*
X34324819Y-83500000D02*
X34372438Y-83404762D01*
X34372438Y-83404762D02*
X34420057Y-83357143D01*
X34420057Y-83357143D02*
X34562914Y-83261905D01*
X34562914Y-83261905D02*
X34753390Y-83214286D01*
X34753390Y-83214286D02*
X35134342Y-83214286D01*
X35134342Y-83214286D02*
X35229580Y-83261905D01*
X35229580Y-83261905D02*
X35277200Y-83309524D01*
X35277200Y-83309524D02*
X35324819Y-83404762D01*
X35324819Y-83404762D02*
X35324819Y-83595238D01*
X35324819Y-83595238D02*
X35277200Y-83690476D01*
X35277200Y-83690476D02*
X35229580Y-83738095D01*
X35229580Y-83738095D02*
X35134342Y-83785714D01*
X35134342Y-83785714D02*
X34896247Y-83785714D01*
X34896247Y-83785714D02*
X34801009Y-83738095D01*
X34801009Y-83738095D02*
X34753390Y-83690476D01*
X34753390Y-83690476D02*
X34705771Y-83595238D01*
X34705771Y-83595238D02*
X34705771Y-83404762D01*
X34705771Y-83404762D02*
X34753390Y-83309524D01*
X34753390Y-83309524D02*
X34801009Y-83261905D01*
X34801009Y-83261905D02*
X34896247Y-83214286D01*
%TO.C,A1*%
D11*
X43570000Y-20755000D02*
X46750000Y-20755000D01*
X43570000Y-87055000D02*
X43570000Y-20755000D01*
X46240000Y-87055000D02*
X43570000Y-87055000D01*
X46750000Y-18855000D02*
X55890000Y-18855000D01*
X46750000Y-20755000D02*
X46750000Y-18855000D01*
X48780000Y-89595000D02*
X46240000Y-87055000D01*
X55890000Y-18855000D02*
X55890000Y-20755000D01*
X55890000Y-20755000D02*
X75960000Y-20755000D01*
X75960000Y-14405000D02*
X87640000Y-14405000D01*
X75960000Y-20755000D02*
X75960000Y-14405000D01*
X81550000Y-89595000D02*
X48780000Y-89595000D01*
X84090000Y-87055000D02*
X81550000Y-89595000D01*
X87640000Y-14405000D02*
X87640000Y-20755000D01*
X87640000Y-20755000D02*
X97170000Y-20755000D01*
X95520000Y-87055000D02*
X84090000Y-87055000D01*
X97170000Y-20755000D02*
X97170000Y-85405000D01*
X97170000Y-85405000D02*
X95520000Y-87055000D01*
%TO.C,R6*%
X31500000Y-76820000D02*
X31500000Y-76930000D01*
X31500000Y-89180000D02*
X31500000Y-89070000D01*
X29130000Y-76930000D02*
X33870000Y-76930000D01*
X33870000Y-89070000D01*
X29130000Y-89070000D01*
X29130000Y-76930000D01*
%TD*%
M02*
