%TF.GenerationSoftware,KiCad,Pcbnew,10.0.4*%
%TF.CreationDate,2026-07-02T11:45:09+12:00*%
%TF.ProjectId,scast_goad,73636173-745f-4676-9f61-642e6b696361,rev?*%
%TF.SameCoordinates,Original*%
%TF.FileFunction,Soldermask,Bot*%
%TF.FilePolarity,Negative*%
%FSLAX46Y46*%
G04 Gerber Fmt 4.6, Leading zero omitted, Abs format (unit mm)*
G04 Created by KiCad (PCBNEW 10.0.4) date 2026-07-02 11:45:09*
%MOMM*%
%LPD*%
G01*
G04 APERTURE LIST*
%ADD10C,2.000000*%
%ADD11R,1.000000X3.200000*%
%ADD12R,1.700000X1.700000*%
%ADD13C,1.700000*%
%ADD14C,2.400000*%
%ADD15R,1.600000X1.600000*%
%ADD16O,1.600000X1.600000*%
G04 APERTURE END LIST*
D10*
%TO.C,C5*%
X63500000Y-100000000D03*
X73500000Y-100000000D03*
%TD*%
D11*
%TO.C,SW6*%
X31800000Y-100000000D03*
X40500000Y-100000000D03*
%TD*%
%TO.C,SW5*%
X97800000Y-100000000D03*
X106500000Y-100000000D03*
%TD*%
D12*
%TO.C,J1*%
X104100000Y-40600000D03*
D13*
X104100000Y-38060000D03*
X104100000Y-35520000D03*
X104100000Y-32980000D03*
X104100000Y-30440000D03*
%TD*%
D14*
%TO.C,R5*%
X102500000Y-75620000D03*
X102500000Y-60380000D03*
%TD*%
D12*
%TO.C,J2*%
X33900000Y-53625000D03*
D13*
X33900000Y-56165000D03*
X33900000Y-58705000D03*
X33900000Y-61245000D03*
X33900000Y-63785000D03*
X33900000Y-66325000D03*
%TD*%
D10*
%TO.C,C4*%
X102500000Y-84000000D03*
X112500000Y-84000000D03*
%TD*%
D15*
%TO.C,A1*%
X46240000Y-48825000D03*
D16*
X46240000Y-51365000D03*
X46240000Y-53905000D03*
X46240000Y-56445000D03*
X46240000Y-58985000D03*
X46240000Y-61525000D03*
X46240000Y-64065000D03*
X46240000Y-66605000D03*
X46240000Y-71685000D03*
X46240000Y-74225000D03*
X46240000Y-76765000D03*
X46240000Y-79305000D03*
X46240000Y-81845000D03*
X46240000Y-84385000D03*
X94500000Y-84385000D03*
X94500000Y-81845000D03*
X94500000Y-79305000D03*
X94500000Y-76765000D03*
X94500000Y-74225000D03*
X94500000Y-71685000D03*
X94500000Y-69145000D03*
X94500000Y-66605000D03*
X94500000Y-62545000D03*
X94500000Y-60005000D03*
X94500000Y-57465000D03*
X94500000Y-54925000D03*
X94500000Y-52385000D03*
X94500000Y-49845000D03*
X94500000Y-47305000D03*
X94500000Y-44765000D03*
X94500000Y-42225000D03*
X94500000Y-39685000D03*
%TD*%
D14*
%TO.C,R6*%
X31500000Y-90620000D03*
X31500000Y-75380000D03*
%TD*%
M02*
