%TF.GenerationSoftware,KiCad,Pcbnew,10.0.4*%
%TF.CreationDate,2026-07-01T17:18:17+12:00*%
%TF.ProjectId,scast_goad,73636173-745f-4676-9f61-642e6b696361,rev?*%
%TF.SameCoordinates,Original*%
%TF.FileFunction,Copper,L1,Top*%
%TF.FilePolarity,Positive*%
%FSLAX46Y46*%
G04 Gerber Fmt 4.6, Leading zero omitted, Abs format (unit mm)*
G04 Created by KiCad (PCBNEW 10.0.4) date 2026-07-01 17:18:17*
%MOMM*%
%LPD*%
G01*
G04 APERTURE LIST*
%TA.AperFunction,ComponentPad*%
%ADD10C,2.000000*%
%TD*%
%TA.AperFunction,ComponentPad*%
%ADD11R,1.000000X3.200000*%
%TD*%
%TA.AperFunction,SMDPad,CuDef*%
%ADD12C,4.000000*%
%TD*%
%TA.AperFunction,ComponentPad*%
%ADD13R,1.700000X1.700000*%
%TD*%
%TA.AperFunction,ComponentPad*%
%ADD14C,1.700000*%
%TD*%
%TA.AperFunction,ComponentPad*%
%ADD15C,2.400000*%
%TD*%
%TA.AperFunction,SMDPad,CuDef*%
%ADD16R,4.000000X4.000000*%
%TD*%
%TA.AperFunction,ComponentPad*%
%ADD17R,1.600000X1.600000*%
%TD*%
%TA.AperFunction,ComponentPad*%
%ADD18O,1.600000X1.600000*%
%TD*%
%TA.AperFunction,ViaPad*%
%ADD19C,1.000000*%
%TD*%
%TA.AperFunction,Conductor*%
%ADD20C,0.200000*%
%TD*%
G04 APERTURE END LIST*
D10*
%TO.P,C5,1*%
%TO.N,BWD_SW*%
X63500000Y-100000000D03*
%TO.P,C5,2*%
%TO.N,+3V3*%
X73500000Y-100000000D03*
%TD*%
D11*
%TO.P,SW6,1,1_1*%
%TO.N,BWD_SW*%
X31800000Y-100000000D03*
%TO.P,SW6,2,2_2*%
%TO.N,+3V3*%
X40500000Y-100000000D03*
%TD*%
%TO.P,SW5,1,1_1*%
%TO.N,FWD_SW*%
X97800000Y-100000000D03*
%TO.P,SW5,2,2_2*%
%TO.N,+3V3*%
X106500000Y-100000000D03*
%TD*%
D12*
%TO.P,TP1,1,1_1*%
%TO.N,GND*%
X103500000Y-51000000D03*
%TD*%
D13*
%TO.P,J1,1,Pin_1_1*%
%TO.N,ENCODER_A*%
X104100000Y-40600000D03*
D14*
%TO.P,J1,2,Pin_2_2*%
%TO.N,ENCODER_B*%
X104100000Y-38060000D03*
%TO.P,J1,3,Pin_3_3*%
%TO.N,unconnected-(J1-Pin_3-Pad3)*%
X104100000Y-35520000D03*
%TO.P,J1,4,Pin_4_4*%
%TO.N,+3V3*%
X104100000Y-32980000D03*
%TO.P,J1,5,Pin_5_5*%
%TO.N,GND*%
X104100000Y-30440000D03*
%TD*%
D15*
%TO.P,R5,1*%
%TO.N,FWD_SW*%
X102500000Y-75620000D03*
%TO.P,R5,2*%
%TO.N,GND*%
X102500000Y-60380000D03*
%TD*%
D16*
%TO.P,TP2,1,1_1*%
%TO.N,+3V3*%
X39500000Y-42000000D03*
%TD*%
D13*
%TO.P,J2,1,Pin_1_1*%
%TO.N,GND*%
X33900000Y-53625000D03*
D14*
%TO.P,J2,2,Pin_2_2*%
%TO.N,+3V3*%
X33900000Y-56165000D03*
%TO.P,J2,3,Pin_3_3*%
%TO.N,TILT_SDA*%
X33900000Y-58705000D03*
%TO.P,J2,4,Pin_4_4*%
%TO.N,TILT_SCL*%
X33900000Y-61245000D03*
%TO.P,J2,5,Pin_5_5*%
%TO.N,unconnected-(J2-Pin_5-Pad5)*%
X33900000Y-63785000D03*
%TO.P,J2,6,Pin_6_6*%
%TO.N,unconnected-(J2-Pin_6-Pad6)*%
X33900000Y-66325000D03*
%TD*%
D10*
%TO.P,C4,1*%
%TO.N,FWD_SW*%
X102500000Y-84000000D03*
%TO.P,C4,2*%
%TO.N,+3V3*%
X112500000Y-84000000D03*
%TD*%
D17*
%TO.P,A1,1,NC_1*%
%TO.N,unconnected-(A1-NC-Pad1)*%
X46240000Y-48825000D03*
D18*
%TO.P,A1,2,IOREF_2*%
%TO.N,unconnected-(A1-IOREF-Pad2)*%
X46240000Y-51365000D03*
%TO.P,A1,3,~{RESET}_3*%
%TO.N,unconnected-(A1-~{RESET}-Pad3)*%
X46240000Y-53905000D03*
%TO.P,A1,4,3V3_4*%
%TO.N,+3V3*%
X46240000Y-56445000D03*
%TO.P,A1,5,+5V_5*%
%TO.N,unconnected-(A1-+5V-Pad5)*%
X46240000Y-58985000D03*
%TO.P,A1,6,GND_6*%
%TO.N,GND*%
X46240000Y-61525000D03*
%TO.P,A1,7,GND_7*%
X46240000Y-64065000D03*
%TO.P,A1,8,VIN_8*%
%TO.N,unconnected-(A1-VIN-Pad8)*%
X46240000Y-66605000D03*
%TO.P,A1,9,A0_9*%
%TO.N,unconnected-(A1-A0-Pad9)*%
X46240000Y-71685000D03*
%TO.P,A1,10,A1_10*%
%TO.N,unconnected-(A1-A1-Pad10)*%
X46240000Y-74225000D03*
%TO.P,A1,11,A2_11*%
%TO.N,unconnected-(A1-A2-Pad11)*%
X46240000Y-76765000D03*
%TO.P,A1,12,A3_12*%
%TO.N,unconnected-(A1-A3-Pad12)*%
X46240000Y-79305000D03*
%TO.P,A1,13,SDA/A4_13*%
%TO.N,TILT_SDA*%
X46240000Y-81845000D03*
%TO.P,A1,14,SCL/A5_14*%
%TO.N,TILT_SCL*%
X46240000Y-84385000D03*
%TO.P,A1,15,D0/RX_15*%
%TO.N,unconnected-(A1-D0{slash}RX-Pad15)*%
X94500000Y-84385000D03*
%TO.P,A1,16,D1/TX_16*%
%TO.N,unconnected-(A1-D1{slash}TX-Pad16)*%
X94500000Y-81845000D03*
%TO.P,A1,17,D2_17*%
%TO.N,ENCODER_A*%
X94500000Y-79305000D03*
%TO.P,A1,18,D3_18*%
%TO.N,ENCODER_B*%
X94500000Y-76765000D03*
%TO.P,A1,19,D4_19*%
%TO.N,BWD_SW*%
X94500000Y-74225000D03*
%TO.P,A1,20,D5_20*%
%TO.N,FWD_SW*%
X94500000Y-71685000D03*
%TO.P,A1,21,D6_21*%
%TO.N,unconnected-(A1-D6-Pad21)*%
X94500000Y-69145000D03*
%TO.P,A1,22,D7_22*%
%TO.N,unconnected-(A1-D7-Pad22)*%
X94500000Y-66605000D03*
%TO.P,A1,23,D8_23*%
%TO.N,unconnected-(A1-D8-Pad23)*%
X94500000Y-62545000D03*
%TO.P,A1,24,D9_24*%
%TO.N,unconnected-(A1-D9-Pad24)*%
X94500000Y-60005000D03*
%TO.P,A1,25,D10_25*%
%TO.N,unconnected-(A1-D10-Pad25)*%
X94500000Y-57465000D03*
%TO.P,A1,26,D11_26*%
%TO.N,unconnected-(A1-D11-Pad26)*%
X94500000Y-54925000D03*
%TO.P,A1,27,D12_27*%
%TO.N,unconnected-(A1-D12-Pad27)*%
X94500000Y-52385000D03*
%TO.P,A1,28,D13_28*%
%TO.N,unconnected-(A1-D13-Pad28)*%
X94500000Y-49845000D03*
%TO.P,A1,29,GND_29*%
%TO.N,GND*%
X94500000Y-47305000D03*
%TO.P,A1,30,AREF_30*%
%TO.N,unconnected-(A1-AREF-Pad30)*%
X94500000Y-44765000D03*
%TO.P,A1,31,SDA/A4_31*%
%TO.N,unconnected-(A1-SDA{slash}A4-Pad31)*%
X94500000Y-42225000D03*
%TO.P,A1,32,SCL/A5_32*%
%TO.N,unconnected-(A1-SCL{slash}A5-Pad32)*%
X94500000Y-39685000D03*
%TD*%
D15*
%TO.P,R6,1*%
%TO.N,BWD_SW*%
X31500000Y-90620000D03*
%TO.P,R6,2*%
%TO.N,GND*%
X31500000Y-75380000D03*
%TD*%
D19*
%TO.N,GND*%
X104000000Y-50000000D03*
X36500000Y-53500000D03*
X93000000Y-47000000D03*
X102000000Y-31000000D03*
X48000000Y-61000000D03*
X32000000Y-73000000D03*
X103500000Y-51000000D03*
X103000000Y-52000000D03*
X104500000Y-59500000D03*
%TD*%
%TO.N,TILT_SDA*%
D20*
X35450000Y-71055000D02*
X46240000Y-81845000D01*
X33900000Y-58705000D02*
X35450000Y-60255000D01*
X35450000Y-60255000D02*
X35450000Y-71055000D01*
%TO.N,TILT_SCL*%
X33900000Y-61245000D02*
X35050000Y-62395000D01*
X35050000Y-73195000D02*
X46240000Y-84385000D01*
X35050000Y-62395000D02*
X35050000Y-73195000D01*
%TO.N,FWD_SW*%
X102500000Y-84000000D02*
X102500000Y-75620000D01*
X97800000Y-88700000D02*
X102500000Y-84000000D01*
X97800000Y-100000000D02*
X97800000Y-88700000D01*
%TO.N,BWD_SW*%
X63500000Y-100000000D02*
X64000000Y-100000000D01*
X36380000Y-95500000D02*
X36300000Y-95500000D01*
X31500000Y-90620000D02*
X36380000Y-95500000D01*
X63500000Y-100000000D02*
X59000000Y-95500000D01*
X64000000Y-100000000D02*
X89775000Y-74225000D01*
X36300000Y-95500000D02*
X31800000Y-100000000D01*
X59000000Y-95500000D02*
X36380000Y-95500000D01*
X89775000Y-74225000D02*
X94500000Y-74225000D01*
%TO.N,ENCODER_A*%
X96000000Y-48700000D02*
X104100000Y-40600000D01*
X94500000Y-79305000D02*
X96000000Y-77805000D01*
X96000000Y-77805000D02*
X96000000Y-48700000D01*
%TO.N,GND*%
X46240000Y-61525000D02*
X47475000Y-61525000D01*
X93305000Y-47305000D02*
X93000000Y-47000000D01*
X102000000Y-31000000D02*
X102560000Y-30440000D01*
X47475000Y-61525000D02*
X48000000Y-61000000D01*
X33900000Y-53625000D02*
X36375000Y-53625000D01*
X103620000Y-60380000D02*
X104500000Y-59500000D01*
X36375000Y-53625000D02*
X36500000Y-53500000D01*
X94500000Y-47305000D02*
X93305000Y-47305000D01*
X31500000Y-73500000D02*
X31500000Y-75380000D01*
X102560000Y-30440000D02*
X104100000Y-30440000D01*
X32000000Y-73000000D02*
X31500000Y-73500000D01*
X102500000Y-60380000D02*
X103620000Y-60380000D01*
X46240000Y-64065000D02*
X46240000Y-61525000D01*
%TO.N,ENCODER_B*%
X94500000Y-76765000D02*
X95600000Y-75665000D01*
X95600000Y-46560000D02*
X104100000Y-38060000D01*
X95600000Y-75665000D02*
X95600000Y-46560000D01*
%TO.N,+3V3*%
X33900000Y-56165000D02*
X45960000Y-56165000D01*
X45960000Y-56165000D02*
X46240000Y-56445000D01*
X72200000Y-101300000D02*
X73500000Y-100000000D01*
X106500000Y-90000000D02*
X112500000Y-84000000D01*
X73500000Y-100000000D02*
X76000000Y-102500000D01*
X112500000Y-41380000D02*
X112500000Y-84000000D01*
X46240000Y-56445000D02*
X39500000Y-49705000D01*
X106500000Y-100000000D02*
X106500000Y-90000000D01*
X76000000Y-102500000D02*
X104000000Y-102500000D01*
X104100000Y-32980000D02*
X112500000Y-41380000D01*
X41800000Y-101300000D02*
X72200000Y-101300000D01*
X39500000Y-49705000D02*
X39500000Y-42000000D01*
X104000000Y-102500000D02*
X106500000Y-100000000D01*
X40500000Y-100000000D02*
X41800000Y-101300000D01*
%TD*%
M02*
